<svg width="101" height="100" viewBox="0 0 101 100" fill="none" xmlns="http://www.w3.org/2000/svg">
<g clip-path="url(#clip0_55_480)">
<path d="M6.6 20C3.74168 23.891 1.7609 28.3554 0.794132 33.0857C-0.172633 37.8159 -0.102398 42.6995 0.999999 47.4C4.2 62.1 11.3 70.4 31 81.4C55 97.1 61.7 101.4 73.8 99.8C88.1 96.8 93 86 93.7 84.4C105.9 59.3 102.7 20.8 74.7 5.9C63.4643 0.109466 50.5817 -1.6496 38.2049 0.916767C25.8281 3.48313 14.707 10.2194 6.7 20H6.6Z" fill="#EDEEEE"/>
<path d="M18.1 35.2H82.9V75.1999H18.1V35.2Z" fill="#A7C8DD"/>
<path d="M16.1 75.4H85.3V34.7C85.3 32.7 83.6 31 81.6 31H19.9C17.9 31 16.2 32.6 16.2 34.7V75.4H16.1ZM20.1 68.3V35.8H81.5V73.9H20V68.3H20.1Z" fill="#354A63"/>
<path d="M16.1 75.4H11.7V78C11.7 79 12.1 79.8 12.7 80.4L12.9 80.6C13.6 81.2 14.3 81.6 15.3 81.6H86.1C88.1 81.6 89.7 79.9 89.7 78V75.4H16.1Z" fill="#354A63"/>
<path d="M31.3 58.3V19.5H68.9V67H39.8" fill="white"/>
<path d="M39.5 54.4H50.9M39.7 41.6H58.1M39.5 48H60.7M39.5 35.2H60.7M39.5 28.5H60.7" stroke="#7FADCB" stroke-width="2" stroke-miterlimit="10" stroke-linecap="square" stroke-linejoin="round"/>
<path d="M30.9 58.4H39.9V67.4L30.9 58.4Z" fill="#7FADCB"/>
<path d="M57.9 76.8H43.6V77.7H58V76.7L57.9 76.8Z" fill="#9EC1D8" stroke="#2891D2" stroke-width="0.8" stroke-linejoin="round"/>
<path d="M93.9917 73H66.3917C66.0925 73 65.85 73.2425 65.85 73.5417V77.0917C65.85 77.3908 66.0925 77.6333 66.3917 77.6333H93.9917C94.2908 77.6333 94.5333 77.3908 94.5333 77.0917V73.5417C94.5333 73.2425 94.2908 73 93.9917 73Z" fill="#FBCB6E"/>
<path d="M85.55 73H94.2916C94.5908 73 94.8333 73.2425 94.8333 73.5417V77.0917C94.8333 77.3908 94.5908 77.6333 94.2916 77.6333H85.55C85.2508 77.6333 85.0083 77.3908 85.0083 77.0917V73.5417C85.0083 73.2425 85.2508 73 85.55 73Z" fill="#FF964E"/>
<path d="M63.75 77.6333H90.3833C90.6825 77.6333 90.925 77.8758 90.925 78.175V81.725C90.925 82.0241 90.6825 82.2666 90.3833 82.2666H63.75C63.4508 82.2666 63.2083 82.0241 63.2083 81.725V78.175C63.2083 77.8758 63.4508 77.6333 63.75 77.6333Z" fill="#FBCB6E"/>
<path d="M82.05 77.6333H90.7916C91.0908 77.6333 91.3333 77.8758 91.3333 78.175V81.725C91.3333 82.0241 91.0908 82.2666 90.7916 82.2666H82.05C81.7508 82.2666 81.5083 82.0241 81.5083 81.725V78.175C81.5083 77.8758 81.7508 77.6333 82.05 77.6333Z" fill="#FF964E"/>
<path d="M67.6333 82.2667H94.925C95.2242 82.2667 95.4667 82.5092 95.4667 82.8084V86.3584C95.4667 86.6575 95.2242 86.9001 94.925 86.9001H67.6333C67.3342 86.9001 67.0917 86.6575 67.0917 86.3584V82.8084C67.0917 82.5092 67.3342 82.2667 67.6333 82.2667Z" fill="#FBCB6E"/>
<path d="M87.4333 82.2667H96.175C96.4742 82.2667 96.7167 82.5092 96.7167 82.8084V86.3584C96.7167 86.6575 96.4742 86.9001 96.175 86.9001H87.4333C87.1342 86.9001 86.8917 86.6575 86.8917 86.3584V82.8084C86.8917 82.5092 87.1342 82.2667 87.4333 82.2667Z" fill="#FF964E"/>
<path d="M94.2667 77.0834H66.4M90.8 81.6834H63.75M96.1167 86.3H67.6417" stroke="#F58436" stroke-width="1.43" stroke-linecap="round"/>
<path d="M101.167 86.4417H62" stroke="#ECAC90" stroke-width="2"/>
</g>
<defs>
<clipPath id="clip0_55_480">
<rect width="101" height="100" fill="white"/>
</clipPath>
</defs>
</svg>
