<svg width="225" height="115" viewBox="0 0 225 115" fill="none" xmlns="http://www.w3.org/2000/svg">
<g clip-path="url(#clip0_6_2)">
<path fill-rule="evenodd" clip-rule="evenodd" d="M212.198 28.679C214.146 29.2379 215.927 30.009 217.539 30.9928C221.804 33.5734 223.937 37.1862 223.937 41.8315C223.937 47.2509 220.903 51.8314 214.835 55.5735C213.972 56.1054 213.093 56.5959 212.198 57.0456V106.498H64.3685V83.504C54.0461 87.8455 43.9278 90.0164 34.0124 90.0164C25.2819 90.0164 17.9716 88.22 12.0821 84.6281C5.36108 80.5614 2.00049 74.868 2.00049 67.5479C2.00049 59.0084 6.78146 51.79 16.3435 45.8933C25.1432 40.4709 34.9822 37.7599 45.8606 37.7599C52.952 37.7599 59.1212 38.6103 64.3685 40.3106V19.1631H139.337L143.785 14.9021C144.91 13.9872 146.348 13.343 148.098 12.9535C149.57 12.6144 150.315 12.8181 150.315 13.5634C150.315 13.7668 150.211 14.0718 150.003 14.4785C149.195 15.8847 148.293 17.4472 147.299 19.1631H212.198V28.679ZM212.198 53.3346C218.045 49.4308 220.969 44.9087 220.969 39.7672C220.969 36.4979 219.276 33.8316 215.89 31.7668C214.748 31.0843 213.517 30.5248 212.198 30.0887V53.3346ZM64.3685 81.0667V65.2376L36.8187 65.108C34.8782 65.108 33.735 65.108 33.3884 65.108C32.6956 64.9726 32.3495 64.6336 32.3495 64.0913C32.3495 63.4813 33.3018 62.6514 35.1901 61.6006C37.0956 60.5503 38.7931 60.025 40.3177 60.025C41.357 60.025 47.9397 60.2283 60.0822 60.635L64.3685 60.7839V42.5643C60.2513 41.1913 55.2604 40.5049 49.3947 40.5049C39.0013 40.5049 29.4045 43.4532 20.6048 49.3499C11.3198 55.5176 6.67759 62.6679 6.67759 70.8013C6.67759 75.9527 9.345 80.1547 14.6805 83.408C19.6693 86.3901 25.732 87.8814 32.869 87.8814C43.3476 87.8814 53.8477 85.6089 64.3685 81.0667Z" fill="#ADD4ED"/>
<path fill-rule="evenodd" clip-rule="evenodd" d="M159.388 6.19293C155.231 13.428 148.614 24.7639 139.537 40.1832C136.904 44.5717 134.271 49.2144 131.638 54.0775C132.709 54.1135 133.691 54.1449 134.585 54.1714C148.389 53.9465 191.296 53.8498 208.037 46.6469C209.41 46.0564 210.683 45.3453 211.918 44.6467C212.028 45.5606 212.123 46.4788 212.198 47.4029C210.837 48.1589 209.486 49.0554 207.932 49.5814C186.525 56.8243 164.98 57.2051 136.254 57.2244L136.262 57.1527L136.263 57.1459C134.387 57.2015 132.291 57.2291 129.975 57.2291C129.351 58.3134 128.762 59.4149 128.208 60.4993C132.781 63.0071 135.068 66.4469 135.068 70.8016C135.068 74.0718 133.907 76.6812 131.586 78.6129C129.265 80.5614 126.684 81.5274 123.843 81.5274C121.348 81.5274 119.252 80.6461 117.555 78.867C115.857 77.1048 115.008 74.8174 115.008 72.0384C115.008 69.6492 116.602 65.5657 119.789 59.7877C115.355 58.483 109.846 57.6697 103.264 57.3308C82.5462 73.5973 62.5907 81.7306 43.3974 81.7306C34.6669 81.7306 27.3569 79.9345 21.4671 76.3423C14.7461 72.2757 11.3856 66.5823 11.3856 59.2625C11.3856 50.7225 16.1666 43.5042 25.7285 37.6076C34.5283 32.1853 44.3673 29.4743 55.2459 29.4743C66.7481 29.4743 75.8249 31.7109 82.4768 36.1843C82.6847 36.3876 82.7885 36.591 82.7885 36.7942C82.7885 37.9465 82.165 38.3531 80.9178 38.0143C75.9983 34.1509 68.6188 32.2193 58.7797 32.2193C48.3863 32.2193 38.7896 35.1675 29.9898 41.0642C20.7049 47.232 16.0626 54.3825 16.0626 62.5158C16.0626 67.6669 18.7303 71.869 24.0656 75.1223C29.0545 78.1045 35.1173 79.5955 42.2542 79.5955C61.2395 79.5955 80.2942 72.1401 99.4181 57.2291L89.4404 57.0259L46.2037 56.8224H42.7738C42.081 56.6868 41.7345 56.348 41.7345 55.8058C41.7345 55.1958 42.6871 54.3655 44.5753 53.315C46.4808 52.2645 48.1783 51.7392 49.7027 51.7392C50.7421 51.7392 57.3247 51.9425 69.4676 52.3492C83.0485 52.8236 92.4198 53.1286 97.5993 53.2642H103.905C105.793 51.7731 107.369 50.4175 108.668 49.1975C123.098 35.4049 136.071 20.6923 153.17 6.61639C154.296 5.70148 155.733 5.05749 157.483 4.6679C158.955 4.32897 159.7 4.5323 159.7 5.27788C159.7 5.48121 159.596 5.78614 159.388 6.19293ZM150.034 12.9028L149.203 12.8011C148.718 13.3433 144.179 17.9522 135.587 26.6277C126.441 35.8454 120.101 42.1825 116.567 45.6392C113.865 48.2147 110.99 50.7564 107.941 53.2642L123.115 53.9758C125.194 50.6377 128.554 45.4528 133.197 38.3871L150.034 12.9028ZM130.495 68.9546C130.495 66.667 129.317 64.6677 126.961 62.9223C123.011 70.4965 121.037 75.0715 121.037 76.6812C121.037 78.6298 121.903 79.5955 123.635 79.5955C125.229 79.5955 126.77 78.4942 128.26 76.2745C129.75 74.0718 130.495 71.6318 130.495 68.9546Z" fill="#344962"/>
<path fill-rule="evenodd" clip-rule="evenodd" d="M136.825 82.8113C137.463 82.7667 138.021 82.594 138.5 82.2927C138.979 81.9919 139.394 81.4458 139.748 80.6539C140.101 79.8626 140.409 78.7756 140.671 77.3934C140.933 76.0109 141.19 74.216 141.44 72.0089L141.953 67.2933H152.415V84.7176H150.125V69.0991H144.107L143.629 72.9786C143.333 75.2974 143.002 77.2093 142.637 78.7144C142.272 80.2194 141.845 81.4235 141.355 82.3264C140.865 83.2293 140.278 83.865 139.594 84.2328C138.91 84.6005 138.112 84.8068 137.2 84.8514L136.825 82.8113ZM159.904 81.507L170.537 67.2933H172.417V84.7176H170.127V70.7715L159.698 84.7176H157.612V67.2933H159.904V81.507ZM176.383 75.9553C176.383 74.729 176.6 73.5694 177.033 72.4772C177.466 71.3845 178.076 70.4313 178.862 69.6176C179.649 68.8039 180.589 68.1626 181.683 67.6946C182.777 67.2263 183.985 66.9921 185.307 66.9921C186.994 66.9921 188.464 67.3654 189.718 68.1126C190.971 68.8595 191.917 69.8681 192.555 71.1392L190.299 71.8414C189.798 70.9499 189.097 70.2529 188.196 69.7513C187.296 69.2495 186.299 68.999 185.205 68.999C184.293 68.999 183.444 69.1774 182.657 69.534C181.871 69.8905 181.187 70.3757 180.606 70.9888C180.025 71.6018 179.568 72.332 179.238 73.1794C178.908 74.0267 178.743 74.9519 178.743 75.9553C178.743 76.9361 178.914 77.8617 179.255 78.731C179.597 79.6006 180.065 80.3531 180.657 80.9884C181.25 81.6242 181.939 82.1256 182.726 82.4935C183.512 82.8616 184.35 83.0452 185.239 83.0452C185.809 83.0452 186.373 82.9673 186.931 82.8113C187.49 82.6552 188.008 82.4379 188.487 82.1594C188.965 81.8804 189.376 81.5626 189.718 81.2062C190.059 80.8494 190.299 80.4703 190.436 80.0689L192.726 80.7379C192.476 81.3623 192.111 81.9363 191.632 82.4601C191.154 82.984 190.59 83.4413 189.94 83.8313C189.29 84.2214 188.572 84.5226 187.786 84.7342C187 84.9462 186.185 85.0521 185.341 85.0521C184.042 85.0521 182.846 84.8125 181.751 84.3329C180.657 83.8536 179.711 83.196 178.913 82.3596C178.116 81.5236 177.495 80.5595 177.05 79.4669C176.605 78.3742 176.383 77.2037 176.383 75.9553ZM203.052 84.7176H200.795V69.2665H194.539V67.2933H209.309V69.2665H203.052V84.7176Z" fill="white"/>
<path d="M1.857 106V95.4548H3.47723V100.041H4.54823L8.33793 95.4548H10.425L6.16846 100.535L10.4799 106H8.39285L4.93269 101.551H3.47723V106H1.857ZM15.0274 106.22C14.0754 106.22 13.2401 105.993 12.5215 105.54C11.8075 105.087 11.2491 104.453 10.8463 103.638C10.4481 102.824 10.249 101.872 10.249 100.782C10.249 99.6838 10.4481 98.725 10.8463 97.9057C11.2491 97.0864 11.8075 96.4502 12.5215 95.9971C13.2401 95.544 14.0754 95.3175 15.0274 95.3175C15.9794 95.3175 16.8124 95.544 17.5264 95.9971C18.2449 96.4502 18.8033 97.0864 19.2015 97.9057C19.6043 98.725 19.8057 99.6838 19.8057 100.782C19.8057 101.872 19.6043 102.824 19.2015 103.638C18.8033 104.453 18.2449 105.087 17.5264 105.54C16.8124 105.993 15.9794 106.22 15.0274 106.22ZM15.0274 104.764C15.7505 104.764 16.3455 104.579 16.8124 104.208C17.2792 103.837 17.6248 103.35 17.849 102.746C18.0733 102.142 18.1854 101.487 18.1854 100.782C18.1854 100.077 18.0733 99.4207 17.849 98.8119C17.6248 98.2032 17.2792 97.7112 16.8124 97.3359C16.3455 96.9606 15.7505 96.7729 15.0274 96.7729C14.3042 96.7729 13.7092 96.9606 13.2424 97.3359C12.7755 97.7112 12.43 98.2032 12.2057 98.8119C11.9814 99.4207 11.8693 100.077 11.8693 100.782C11.8693 101.487 11.9814 102.142 12.2057 102.746C12.43 103.35 12.7755 103.837 13.2424 104.208C13.7092 104.579 14.3042 104.764 15.0274 104.764ZM28.2732 99.9859V101.496H22.4514V99.9859H28.2732ZM22.8358 95.4548V106H21.2156V95.4548H22.8358ZM29.509 95.4548V106H27.8888V95.4548H29.509ZM35.6887 106.22C34.7001 106.22 33.8487 105.986 33.1347 105.519C32.4207 105.053 31.8715 104.41 31.4871 103.59C31.1026 102.771 30.9104 101.835 30.9104 100.782C30.9104 99.7113 31.1072 98.7662 31.5008 97.9469C31.899 97.1231 32.4528 96.48 33.1622 96.0177C33.8762 95.5509 34.7092 95.3175 35.6612 95.3175C36.4027 95.3175 37.0709 95.4548 37.6659 95.7294C38.2609 96.004 38.7483 96.3885 39.1282 96.8828C39.5081 97.3771 39.7438 97.9538 39.8354 98.6128H38.2151C38.0916 98.1323 37.8169 97.7066 37.3913 97.3359C36.9702 96.9606 36.4027 96.7729 35.6887 96.7729C35.0571 96.7729 34.5032 96.9377 34.0272 97.2672C33.5558 97.5922 33.1874 98.0522 32.9219 98.6472C32.661 99.2376 32.5306 99.931 32.5306 100.727C32.5306 101.542 32.6587 102.251 32.9151 102.856C33.1759 103.46 33.5421 103.929 34.0135 104.263C34.4895 104.597 35.0479 104.764 35.6887 104.764C36.1097 104.764 36.4919 104.691 36.8352 104.545C37.1785 104.398 37.4691 104.188 37.7071 103.913C37.9451 103.638 38.1144 103.309 38.2151 102.924H39.8354C39.7438 103.547 39.5173 104.107 39.1557 104.606C38.7987 105.101 38.325 105.494 37.7346 105.787C37.1487 106.076 36.4667 106.22 35.6887 106.22ZM44.2438 106.247C43.5755 106.247 42.9691 106.121 42.4244 105.87C41.8798 105.613 41.4473 105.245 41.1269 104.764C40.8065 104.279 40.6463 103.693 40.6463 103.007C40.6463 102.403 40.7653 101.913 41.0033 101.537C41.2413 101.158 41.5594 100.86 41.9576 100.645C42.3558 100.43 42.7952 100.27 43.2758 100.164C43.7609 100.055 44.2483 99.9676 44.7381 99.9035C45.3788 99.8212 45.8983 99.7594 46.2965 99.7182C46.6993 99.6724 46.9922 99.5969 47.1753 99.4916C47.3629 99.3863 47.4568 99.2033 47.4568 98.9424V98.8875C47.4568 98.2101 47.2714 97.6837 46.9007 97.3084C46.5345 96.9331 45.9784 96.7455 45.2324 96.7455C44.4589 96.7455 43.8524 96.9148 43.4131 97.2535C42.9737 97.5922 42.6647 97.9538 42.4862 98.3382L40.9484 97.789C41.223 97.1482 41.5892 96.6493 42.0468 96.2923C42.5091 95.9308 43.0126 95.679 43.5572 95.5371C44.1065 95.3907 44.6465 95.3175 45.1775 95.3175C45.5162 95.3175 45.9052 95.3586 46.3446 95.441C46.7885 95.5188 47.2165 95.6813 47.6284 95.9285C48.0449 96.1756 48.3905 96.5486 48.6651 97.0475C48.9397 97.5464 49.077 98.2146 49.077 99.0522V106H47.4568V104.572H47.3744C47.2645 104.801 47.0815 105.046 46.8252 105.307C46.5688 105.567 46.2279 105.789 45.8022 105.973C45.3766 106.156 44.8571 106.247 44.2438 106.247ZM44.4909 104.792C45.1317 104.792 45.6718 104.666 46.1112 104.414C46.5551 104.162 46.8892 103.837 47.1135 103.439C47.3423 103.041 47.4568 102.622 47.4568 102.183V100.7C47.3881 100.782 47.2371 100.858 47.0037 100.926C46.7748 100.991 46.5093 101.048 46.2073 101.098C45.9098 101.144 45.6191 101.185 45.3354 101.222C45.0562 101.254 44.8296 101.281 44.6557 101.304C44.2346 101.359 43.841 101.448 43.4748 101.572C43.1133 101.691 42.8203 101.872 42.5961 102.114C42.3764 102.352 42.2665 102.677 42.2665 103.089C42.2665 103.652 42.4748 104.078 42.8913 104.366C43.3124 104.65 43.8456 104.792 44.4909 104.792ZM50.0373 106V104.49H50.4217C50.7375 104.49 51.0007 104.428 51.2112 104.304C51.4218 104.176 51.5911 103.954 51.7193 103.638C51.852 103.318 51.9527 102.874 52.0214 102.306C52.0946 101.734 52.1472 101.007 52.1793 100.123L52.3715 95.4548H59.4017V106H57.7814V96.9651H53.9093L53.7446 100.727C53.708 101.592 53.6302 102.354 53.5112 103.014C53.3967 103.668 53.2205 104.217 52.9825 104.661C52.7491 105.105 52.4379 105.439 52.0488 105.664C51.6598 105.888 51.1723 106 50.5865 106H50.0373ZM59.8762 96.9651V95.4548H68.4442V96.9651H64.984V106H63.3638V96.9651H59.8762ZM71.3645 103.611L76.4449 95.4548H78.3123V106H76.6921V97.8439L71.6391 106H69.7443V95.4548H71.3645V103.611ZM87.2742 99.9859V101.496H81.4523V99.9859H87.2742ZM81.8368 95.4548V106H80.2166V95.4548H81.8368ZM88.5099 95.4548V106H86.8897V95.4548H88.5099ZM96.914 95.4548V96.9651H92.0258V106H90.4056V95.4548H96.914ZM101.952 106.22C101 106.22 100.165 105.993 99.4464 105.54C98.7324 105.087 98.174 104.453 97.7713 103.638C97.3731 102.824 97.174 101.872 97.174 100.782C97.174 99.6838 97.3731 98.725 97.7713 97.9057C98.174 97.0864 98.7324 96.4502 99.4464 95.9971C100.165 95.544 101 95.3175 101.952 95.3175C102.904 95.3175 103.737 95.544 104.451 95.9971C105.17 96.4502 105.728 97.0864 106.126 97.9057C106.529 98.725 106.731 99.6838 106.731 100.782C106.731 101.872 106.529 102.824 106.126 103.638C105.728 104.453 105.17 105.087 104.451 105.54C103.737 105.993 102.904 106.22 101.952 106.22ZM101.952 104.764C102.675 104.764 103.27 104.579 103.737 104.208C104.204 103.837 104.55 103.35 104.774 102.746C104.998 102.142 105.11 101.487 105.11 100.782C105.11 100.077 104.998 99.4207 104.774 98.8119C104.55 98.2032 104.204 97.7112 103.737 97.3359C103.27 96.9606 102.675 96.7729 101.952 96.7729C101.229 96.7729 100.634 96.9606 100.167 97.3359C99.7005 97.7112 99.3549 98.2032 99.1306 98.8119C98.9064 99.4207 98.7942 100.077 98.7942 100.782C98.7942 101.487 98.9064 102.142 99.1306 102.746C99.3549 103.35 99.7005 103.837 100.167 104.208C100.634 104.579 101.229 104.764 101.952 104.764ZM108.141 106V95.4548H112.452C113.587 95.4548 114.489 95.7111 115.157 96.2237C115.825 96.7363 116.159 97.4137 116.159 98.2558C116.159 98.8966 115.969 99.3932 115.59 99.7456C115.21 100.093 114.722 100.329 114.127 100.453C114.516 100.508 114.894 100.645 115.26 100.865C115.631 101.084 115.937 101.386 116.18 101.771C116.423 102.151 116.544 102.618 116.544 103.171C116.544 103.712 116.406 104.194 116.132 104.62C115.857 105.046 115.464 105.382 114.951 105.629C114.438 105.876 113.825 106 113.111 106H108.141ZM109.678 104.517H113.111C113.669 104.517 114.107 104.384 114.422 104.119C114.738 103.853 114.896 103.492 114.896 103.034C114.896 102.489 114.738 102.062 114.422 101.75C114.107 101.435 113.669 101.277 113.111 101.277H109.678V104.517ZM109.678 99.8761H112.452C112.887 99.8761 113.26 99.8166 113.571 99.6976C113.882 99.574 114.12 99.4001 114.285 99.1758C114.454 98.947 114.539 98.6769 114.539 98.3657C114.539 97.9217 114.354 97.5739 113.983 97.3221C113.612 97.0658 113.102 96.9377 112.452 96.9377H109.678V99.8761ZM121.036 106.247C120.368 106.247 119.762 106.121 119.217 105.87C118.672 105.613 118.24 105.245 117.919 104.764C117.599 104.279 117.439 103.693 117.439 103.007C117.439 102.403 117.558 101.913 117.796 101.537C118.034 101.158 118.352 100.86 118.75 100.645C119.148 100.43 119.588 100.27 120.068 100.164C120.553 100.055 121.041 99.9676 121.531 99.9035C122.171 99.8212 122.691 99.7594 123.089 99.7182C123.492 99.6724 123.785 99.5969 123.968 99.4916C124.155 99.3863 124.249 99.2033 124.249 98.9424V98.8875C124.249 98.2101 124.064 97.6837 123.693 97.3084C123.327 96.9331 122.771 96.7455 122.025 96.7455C121.251 96.7455 120.645 96.9148 120.206 97.2535C119.766 97.5922 119.457 97.9538 119.279 98.3382L117.741 97.789C118.016 97.1482 118.382 96.6493 118.839 96.2923C119.302 95.9308 119.805 95.679 120.35 95.5371C120.899 95.3907 121.439 95.3175 121.97 95.3175C122.309 95.3175 122.698 95.3586 123.137 95.441C123.581 95.5188 124.009 95.6813 124.421 95.9285C124.837 96.1756 125.183 96.5486 125.458 97.0475C125.732 97.5464 125.87 98.2146 125.87 99.0522V106H124.249V104.572H124.167C124.057 104.801 123.874 105.046 123.618 105.307C123.361 105.567 123.02 105.789 122.595 105.973C122.169 106.156 121.65 106.247 121.036 106.247ZM121.283 104.792C121.924 104.792 122.464 104.666 122.904 104.414C123.348 104.162 123.682 103.837 123.906 103.439C124.135 103.041 124.249 102.622 124.249 102.183V100.7C124.181 100.782 124.03 100.858 123.796 100.926C123.567 100.991 123.302 101.048 123 101.098C122.702 101.144 122.412 101.185 122.128 101.222C121.849 101.254 121.622 101.281 121.448 101.304C121.027 101.359 120.634 101.448 120.267 101.572C119.906 101.691 119.613 101.872 119.389 102.114C119.169 102.352 119.059 102.677 119.059 103.089C119.059 103.652 119.267 104.078 119.684 104.366C120.105 104.65 120.638 104.792 121.283 104.792ZM134.107 106V96.9377H131.306C130.674 96.9377 130.178 97.0841 129.816 97.3771C129.455 97.67 129.274 98.0728 129.274 98.5854C129.274 99.0888 129.436 99.4847 129.761 99.7731C130.091 100.061 130.542 100.206 131.114 100.206H134.519V101.716H131.114C130.4 101.716 129.784 101.59 129.267 101.338C128.75 101.087 128.352 100.727 128.072 100.261C127.793 99.7891 127.654 99.2307 127.654 98.5854C127.654 97.9355 127.8 97.3771 128.093 96.9102C128.386 96.4434 128.805 96.0841 129.349 95.8324C129.899 95.5806 130.551 95.4548 131.306 95.4548H135.645V106H134.107ZM127.077 106L130.07 100.755H131.828L128.834 106H127.077ZM141.93 106V95.4548H143.55V100.041H144.621L148.411 95.4548H150.498L146.242 100.535L150.553 106H148.466L145.006 101.551H143.55V106H141.93ZM155.1 106.22C154.148 106.22 153.313 105.993 152.595 105.54C151.881 105.087 151.322 104.453 150.919 103.638C150.521 102.824 150.322 101.872 150.322 100.782C150.322 99.6838 150.521 98.725 150.919 97.9057C151.322 97.0864 151.881 96.4502 152.595 95.9971C153.313 95.544 154.148 95.3175 155.1 95.3175C156.052 95.3175 156.885 95.544 157.6 95.9971C158.318 96.4502 158.876 97.0864 159.275 97.9057C159.677 98.725 159.879 99.6838 159.879 100.782C159.879 101.872 159.677 102.824 159.275 103.638C158.876 104.453 158.318 105.087 157.6 105.54C156.885 105.993 156.052 106.22 155.1 106.22ZM155.1 104.764C155.824 104.764 156.419 104.579 156.885 104.208C157.352 103.837 157.698 103.35 157.922 102.746C158.146 102.142 158.259 101.487 158.259 100.782C158.259 100.077 158.146 99.4207 157.922 98.8119C157.698 98.2032 157.352 97.7112 156.885 97.3359C156.419 96.9606 155.824 96.7729 155.1 96.7729C154.377 96.7729 153.782 96.9606 153.315 97.3359C152.849 97.7112 152.503 98.2032 152.279 98.8119C152.055 99.4207 151.942 100.077 151.942 100.782C151.942 101.487 152.055 102.142 152.279 102.746C152.503 103.35 152.849 103.837 153.315 104.208C153.782 104.579 154.377 104.764 155.1 104.764ZM167.056 103.803L170.736 95.4548H172.273L167.715 106H166.397L161.92 95.4548H163.431L167.056 103.803ZM162.909 95.4548V106H161.289V95.4548H162.909ZM171.202 106V95.4548H172.823V106H171.202ZM174.725 106V95.4548H183.019V106H181.398V96.9651H176.345V106H174.725ZM188.017 106.247C187.349 106.247 186.743 106.121 186.198 105.87C185.653 105.613 185.221 105.245 184.9 104.764C184.58 104.279 184.42 103.693 184.42 103.007C184.42 102.403 184.539 101.913 184.777 101.537C185.015 101.158 185.333 100.86 185.731 100.645C186.129 100.43 186.569 100.27 187.049 100.164C187.534 100.055 188.022 99.9676 188.512 99.9035C189.152 99.8212 189.672 99.7594 190.07 99.7182C190.473 99.6724 190.766 99.5969 190.949 99.4916C191.137 99.3863 191.23 99.2033 191.23 98.9424V98.8875C191.23 98.2101 191.045 97.6837 190.674 97.3084C190.308 96.9331 189.752 96.7455 189.006 96.7455C188.232 96.7455 187.626 96.9148 187.187 97.2535C186.747 97.5922 186.438 97.9538 186.26 98.3382L184.722 97.789C184.997 97.1482 185.363 96.6493 185.82 96.2923C186.283 95.9308 186.786 95.679 187.331 95.5371C187.88 95.3907 188.42 95.3175 188.951 95.3175C189.29 95.3175 189.679 95.3586 190.118 95.441C190.562 95.5188 190.99 95.6813 191.402 95.9285C191.818 96.1756 192.164 96.5486 192.439 97.0475C192.713 97.5464 192.851 98.2146 192.851 99.0522V106H191.23V104.572H191.148C191.038 104.801 190.855 105.046 190.599 105.307C190.342 105.567 190.001 105.789 189.576 105.973C189.15 106.156 188.631 106.247 188.017 106.247ZM188.265 104.792C188.905 104.792 189.445 104.666 189.885 104.414C190.329 104.162 190.663 103.837 190.887 103.439C191.116 103.041 191.23 102.622 191.23 102.183V100.7C191.162 100.782 191.011 100.858 190.777 100.926C190.548 100.991 190.283 101.048 189.981 101.098C189.683 101.144 189.393 101.185 189.109 101.222C188.83 101.254 188.603 101.281 188.429 101.304C188.008 101.359 187.615 101.448 187.248 101.572C186.887 101.691 186.594 101.872 186.37 102.114C186.15 102.352 186.04 102.677 186.04 103.089C186.04 103.652 186.248 104.078 186.665 104.366C187.086 104.65 187.619 104.792 188.265 104.792ZM201.802 99.9859V101.496H195.98V99.9859H201.802ZM196.365 95.4548V106H194.745V95.4548H196.365ZM203.038 95.4548V106H201.418V95.4548H203.038ZM206.554 103.611L211.634 95.4548H213.502V106H211.881V97.8439L206.828 106H204.934V95.4548H206.554V103.611ZM221.749 106V96.9377H218.948C218.317 96.9377 217.82 97.0841 217.459 97.3771C217.097 97.67 216.916 98.0728 216.916 98.5854C216.916 99.0888 217.079 99.4847 217.404 99.7731C217.733 100.061 218.184 100.206 218.756 100.206H222.161V101.716H218.756C218.042 101.716 217.427 101.59 216.909 101.338C216.392 101.087 215.994 100.727 215.715 100.261C215.436 99.7891 215.296 99.2307 215.296 98.5854C215.296 97.9355 215.442 97.3771 215.735 96.9102C216.028 96.4434 216.447 96.0841 216.992 95.8324C217.541 95.5806 218.193 95.4548 218.948 95.4548H223.287V106H221.749ZM214.719 106L217.713 100.755H219.47L216.477 106H214.719Z" fill="#344962"/>
</g>
<defs>
<clipPath id="clip0_6_2">
<rect width="224.995" height="114.998" fill="white"/>
</clipPath>
</defs>
</svg>
