<svg width="100" height="100" viewBox="0 0 100 100" fill="none" xmlns="http://www.w3.org/2000/svg">
<g clip-path="url(#clip0_53_2)">
<path d="M91.8346 31.2835C98.3466 53.0299 89.6096 80.3363 73.1442 92.9629C56.8568 105.466 14.5363 109.74 6.12564 73.904C-5.17762 25.7676 71.8982 -35.2245 91.8346 31.2835Z" fill="#EDEEEE"/>
<path d="M77 35.7797C77.1995 36.3111 77.409 35.8028 77.6284 35.0865C78.6558 31.5279 79.2543 26.6754 78.8952 23.9026C78.4264 20.2747 77.1995 28.7551 77.1995 28.7551L77 35.7797Z" fill="#6B3626"/>
<path d="M52.5445 75C52.5445 75 68.2409 73.2601 70.6128 71.0299C73.4033 68.4042 60.1951 66 60.1951 66L48.196 70.1757C47.9867 70.2548 47.9402 70.4288 48.0798 70.5554L52.5678 75H52.5445Z" fill="#354A63"/>
<path d="M60 65.5708C60.6611 57.4734 60.2133 46.2022 62.3459 45.0425C64.4786 43.9031 68.9998 66.0591 68.9998 66.0591C68.9998 66.0591 69.1064 70.2706 64.5425 71.7965C60 73.3427 60 65.5708 60 65.5708Z" fill="#354A63"/>
<path d="M78.7054 20.6776C75.8358 16.7045 71.3592 17.2297 69.9053 17.4809C69.5395 17.5591 69.1622 17.4835 68.8378 17.267C68.5134 17.0505 68.2619 16.7065 68.1261 16.2935C68.0496 15.9967 67.7435 15.9053 67.5522 16.1108L67.0548 16.7502C65.3713 19.1249 65.8496 23.646 67.4566 25.0617L70.6131 23.2807L76.5054 26.8427C76.5054 26.8427 75.5489 35.0629 78.4185 30.7473C79.3895 29.3413 79.9441 27.5917 79.996 25.7707C80.0479 23.9496 79.5942 22.1591 78.7054 20.6776Z" fill="#6B3626"/>
<path d="M80 44.5236L70.9877 45L69 41.9036C69 41.9036 69.8491 42.1021 70.1772 40.2164C70.3315 39.4059 70.364 38.5759 70.2737 37.7552V37.6361L70.0614 35.7505C69.907 34.2618 69.7719 32.4754 70.0614 32.0586C71.7404 29.6767 77.1439 32.0586 77.1439 32.0586C76.7964 34.7811 77.1628 37.5496 78.2053 40.0775L80 44.5236Z" fill="#E9B7AC"/>
<path d="M64 43.9146C64 43.9146 67.7702 42.9095 69.1895 42.2663C69.1895 42.2663 69.5665 44.0955 73.625 43.6131C78.371 43.0302 79.125 41 79.125 41L86 43.2111L85.1351 49.5226L79.0141 77L65.8185 76.4975L64 43.8945V43.9146Z" fill="white"/>
<path opacity="0.8" d="M76 33C74.7853 37.7077 72.5031 38.6769 70.2393 39C70.2393 38.7231 70.092 36.6923 70 35.7C70.1656 35.1 70.4417 34.5923 70.8282 34.1769L76 33Z" fill="#E8A597"/>
<path d="M79.7793 41C78.3258 48.6795 75 77 75 77L90.9145 76.8375L91.0623 59.4876L92.8853 46.3431C92.8853 46.3431 93.4766 44.5756 91.9738 43.9052C90.4957 43.2348 79.7793 41 79.7793 41Z" fill="#354A63"/>
<path d="M79.7847 31.3097C78.6999 31.9764 77.0726 31.824 77.0726 31.824L76.1337 33.0051C75.4259 33.8458 74.5368 34.545 73.5212 35.0594C72.5057 35.5738 71.3854 35.8926 70.2296 35.9959C69.1865 36.034 67.7678 35.8245 66.8499 34.5101C66.2172 33.4638 65.9276 32.2735 66.0154 31.0811C66.0571 30.6239 66.0571 30.3763 66.1197 29.9191V29.7667C66.5161 27.1187 67.2671 24.4137 67.9347 23.5755L71.544 22.0134C71.9612 21.8229 75.6539 23.7279 75.8625 23.6326C76.0712 23.5564 76.6136 29.1571 77.5733 28.1093C78.6164 26.9473 80.5358 27.1568 80.9113 28.5475C81.1616 29.4238 80.9113 30.6048 79.7847 31.3097Z" fill="#E9B7AC"/>
<path d="M67 23.457C68.3774 23.038 71.6633 23.0799 73.3949 24.5465C75.1461 26.0131 74.9296 28.2969 74.9296 28.9045V29.4073C74.9296 29.8263 75.3232 30.1197 75.697 29.952C75.697 29.952 76.2873 28.4016 77.3498 27.6474C78.432 26.8721 77.8811 22.5352 77.6843 22.7447C77.4876 22.9542 74.2016 20.859 74.2016 20.859L71.8798 20L68.1019 21.5923L67 23.457Z" fill="#6B3626"/>
<path opacity="0.8" d="M66.7192 31.1288C66.6164 31.6083 66.2671 32.0192 66 31.7453V31.1973C66.0411 30.3412 66.0411 29.896 66.1027 29.0741V28.8002C66.5137 29.759 66.8219 30.5809 66.7192 31.1288ZM73.3767 28.1837C74.363 28.7659 74.0137 30.0672 73.4589 30.7521C72.7603 31.6083 71.4658 32.6014 70.8493 31.5398C70.4589 30.8549 70.9315 29.3138 71.7123 28.5604C72.5137 27.807 72.9452 27.944 73.3767 28.218V28.1837Z" fill="#E8A192"/>
<path d="M67.5469 27.5676C67.6187 27.5676 67.6898 27.5602 67.7562 27.546C67.8225 27.5317 67.8828 27.5108 67.9336 27.4844C67.9844 27.4581 68.0246 27.4268 68.0521 27.3924C68.0796 27.358 68.0937 27.3211 68.0937 27.2838C68.0937 27.2465 68.0796 27.2096 68.0521 27.1752C68.0246 27.1408 67.9844 27.1095 67.9336 27.0831C67.8828 27.0568 67.8225 27.0359 67.7562 27.0216C67.6898 27.0073 67.6187 27 67.5469 27C67.4018 27 67.2627 27.0299 67.1602 27.0831C67.0576 27.1363 67 27.2085 67 27.2838C67 27.359 67.0576 27.4312 67.1602 27.4844C67.2627 27.5377 67.4018 27.5676 67.5469 27.5676ZM71.4531 28C71.5982 28 71.7373 27.9701 71.8398 27.9169C71.9424 27.8637 72 27.7915 72 27.7162C72 27.641 71.9424 27.5688 71.8398 27.5156C71.7373 27.4623 71.5982 27.4324 71.4531 27.4324C71.3081 27.4324 71.169 27.4623 71.0664 27.5156C70.9639 27.5688 70.9063 27.641 70.9063 27.7162C70.9063 27.7915 70.9639 27.8637 71.0664 27.9169C71.169 27.9701 71.3081 28 71.4531 28Z" fill="#591D0B"/>
<path d="M72.8171 26C72.7393 26 72.681 25.9768 72.6227 25.9419C72.3505 25.7908 72.1172 25.5701 70.8728 25.5468C70.7756 25.5468 70.6784 25.512 70.6784 25.4422C70.6395 25.3841 70.7367 25.3377 70.8339 25.3144C72.331 24.8845 72.9532 25.7908 72.9726 25.8257C72.9862 25.8393 72.995 25.8544 72.9984 25.8702C73.0018 25.8859 72.9998 25.9018 72.9925 25.9171C72.9852 25.9323 72.9728 25.9465 72.956 25.9588C72.9392 25.971 72.9184 25.9811 72.8949 25.9884H72.8171V26ZM68.9869 25.4771L69.0647 25.4306C69.1036 25.3725 69.0647 25.3144 68.9869 25.2563C68.5981 25.0007 67.9565 24.838 67.1593 25.2563C67.0816 25.2796 66.9455 25.4422 67.0232 25.5003C67.101 25.5584 67.2176 25.5584 67.276 25.512C67.9565 25.1866 68.7342 25.4422 68.8119 25.4539C68.8703 25.4771 68.9286 25.4887 69.0064 25.4771H68.9869Z" fill="#6B3626"/>
<path d="M70.6822 32.0398C69.6042 32.3431 68.3408 32.466 67.0963 32.3887C66.9825 32.3887 66.954 32.4424 67.0963 32.523C67.2102 32.6035 67.324 32.6572 67.4948 32.7243C68.377 33.1136 70.0276 33.221 70.9668 32.1606C71.0806 32.0263 70.8814 31.9592 70.6822 32.0263V32.0398Z" fill="#B2412B"/>
<path d="M62.3729 45.0812C64.376 43.7651 66.5197 42.7301 68.7543 42C68.8093 42 71.3214 71.8791 71.9632 75.69C72.605 79.5009 64.6284 73.7845 64.6284 73.7845L63.3448 65.6762C63.3448 65.6762 61.1443 46.1352 62.3729 45.0812Z" fill="#354A63"/>
<path d="M64.0063 70C63.9837 71.9147 64.029 76.8971 64.029 76.8971L72 77L70.2563 72.6765L64.0063 70Z" fill="#354A63"/>
<path d="M98.9535 70.9783C98.6509 67.2495 96.3109 56.4224 95.6452 52.8332C94.5156 46.5921 94.2937 44.9372 90.8443 44L89.3112 49.3837C89.3112 49.3837 90.0777 50.3807 91.0863 51.5571C89.2708 60.8888 89.3112 72.8725 89.3112 72.8725L88 77H98.2273L98.6307 75.3251C98.9634 73.9011 99.0722 72.435 98.9535 70.9783Z" fill="#354A63"/>
<path d="M33.021 46.2422L34.0694 44.536C34.0694 44.536 33.7129 42.7282 34.6984 41.1642C35.4848 40.0922 36.0148 38.8641 36.25 37.5689C36.292 35.9033 35.7468 35.7205 35.9565 35.0908C36.0404 34.8877 37.0049 34.9689 37.5081 35.9236C38.0114 36.8986 37.613 38.3205 37.7178 38.9705C37.7807 39.6408 38.4098 39.7423 38.8081 39.5392C39.2065 39.3361 40.6743 38.5236 41.3243 39.3361C41.534 39.7423 41.4711 40.1892 41.0098 40.6564C41.0098 40.6564 41.6808 40.7782 41.8485 41.3673C41.9743 41.8954 41.5969 42.2204 41.5969 42.2204C41.5969 42.2204 41.8904 42.4235 41.9743 42.7688C42.0582 43.1345 41.9324 43.4391 41.6598 43.7032C41.6598 43.7032 41.9324 44.1095 41.8695 44.4751C41.8066 44.8407 41.555 45.3079 40.4017 45.4094C40.4017 45.4094 39.2275 46.2219 38.0533 46.7297C36.8791 47.2172 37.7178 46.8516 37.7178 46.8516L35.7258 50L33 46.2422H33.021Z" fill="#D7AB8B"/>
<path d="M28.0828 65.8497L20.8232 67.9883C19.6132 68.1366 18 66.8449 18 65.5744L18.9478 44.929C18.9478 43.3565 19.5427 41.8484 20.6016 40.7365C21.6605 39.6247 23.0966 39 24.5941 39C27.8005 39 30.4421 40.4822 29.938 46.1994L28.0828 65.8497Z" fill="#7FADCB"/>
<path d="M33.6425 45.1889L37.5707 48.229C37.7844 48.4012 37.9308 48.6539 37.9809 48.9372C38.0311 49.2206 37.9814 49.514 37.8417 49.7596C36.0033 53.1143 29.6175 65.1492 26.8503 67.5184C23.5993 70.286 20 60.222 20 60.222L32.1912 45.3985C32.5782 44.9582 33.1974 44.8744 33.6425 45.1889Z" fill="#7FADCB"/>
<path d="M29.8817 43.4979L27.7182 54.8589L27.6977 54.9235L23.4931 77L1 76.8709C1 76.8709 6.40895 48.7266 7.55197 44.4877C9.47061 37.4731 14.3897 34.4392 17.1452 35.0847L25.9628 37.0858C26.6204 37.2338 27.2437 37.5174 27.797 37.9202C28.3503 38.323 28.8226 38.8371 29.1868 39.433C29.5509 40.0289 29.7998 40.6947 29.9191 41.3923C30.0384 42.0899 30.0257 42.8055 29.8817 43.4979Z" fill="#9EC1D8"/>
<path d="M99.9957 76H-1V78H100V76H99.9957Z" fill="#7FADCB"/>
<path d="M52.1908 74.802C51.5354 76.1726 45.6366 78 45.6366 78L40 73.1574L40.7341 70.8731L46.3969 69L49.91 69.8223C50.1197 69.868 50.4343 70.0964 50.7489 70.4162C51.7189 71.2843 52.4006 72.3807 52.82 73.5457L52.9773 74.0025C53.056 74.231 52.9249 74.5051 52.6627 74.5964L52.1908 74.7792V74.802Z" fill="#E9B7AC"/>
<path d="M38.6465 69L41.3693 70.0766L47.8601 70.1767C47.8601 70.1767 46.5717 70.8527 46.6203 71.5788C46.6689 72.3048 47.2524 71.5287 48.9055 73.2312L51.9929 76.3607C52.0901 76.4609 52.552 76.9616 52.6249 77.0868C53.1354 77.913 53.3056 78.8643 51.9442 78.7892C51.9442 78.7892 52.1873 79.315 51.7011 79.7156C51.3122 80.0661 50.3398 79.8157 50.3398 79.8157C50.3398 79.8157 50.4127 80.2664 50.048 80.4917C49.5132 80.8172 48.7596 80.4917 48.7596 80.4917C48.7596 80.4917 48.3949 81.343 47.1065 80.8422C45.6479 80.2914 44.8943 79.6405 44.2379 79.2149C43.9462 79.0146 43.387 78.2885 43.0953 78.1383C39.3515 76.0603 39.3758 75.1089 39.3758 75.1089L35 73.5066L38.6465 69Z" fill="#D7AB8B"/>
<path d="M48.9688 69.3693C48.1272 69.1597 47.6596 68.9763 47.0985 69.0025C46.6932 69.0025 44.8541 69.6838 43.763 70.1292C43.5103 70.2324 43.2922 70.3872 43.1289 70.5795C42.9656 70.7717 42.8621 70.9952 42.8279 71.2297C42.7682 71.5396 42.6849 71.8459 42.5785 72.1468C42.2668 72.9329 41.6433 73.5093 42.2668 73.85C43.1084 74.3478 44.9476 73.5355 45.1346 72.4612C45.1346 72.2778 45.1346 71.9896 45.2281 71.8848C45.7269 71.3607 46.9426 71.8848 46.9426 71.8848L49 69.3693H48.9688Z" fill="#E9B7AC"/>
<path d="M40.0461 78.1176C40.1382 78.7719 40.6911 78.9246 41.244 78.99C41.5157 79.0096 41.7933 79.0002 42.0564 78.9625C42.3194 78.9248 42.5613 78.8596 42.7644 78.7719C43.0408 78.6628 43.4094 78.4884 43.5476 78.3357C44.0083 77.8776 44.2387 77.4632 43.6397 77.1797C42.9487 76.8307 42.2576 77.0052 40.9215 77.5723C40.1382 77.9213 40 78.1176 40 78.1176H40.0461Z" fill="#E9B7AC"/>
<path d="M39.4888 76.9321C38.8924 76.2969 38.8924 75.5206 39.2177 75.1677C39.6786 74.7795 40.0853 75.1677 40.2751 75.3089C40.4378 75.45 40.8445 75.9441 40.736 76.3675C40.6818 76.6145 40.5462 76.8262 40.4649 76.9674C40.396 77.0707 40.3055 77.1458 40.2044 77.1834C40.1033 77.2209 39.996 77.2195 39.8955 77.1791C39.7482 77.1346 39.6097 77.0505 39.4888 76.9321ZM41.9561 78.1672C41.7934 79.2258 42.0916 79.5787 42.3085 79.8257C42.5254 80.0022 43.0135 80.108 43.2846 79.8257C43.5828 79.4729 44.5047 77.532 43.6371 76.7204C42.7695 75.9088 41.9561 78.1672 41.9561 78.1672Z" fill="#E9B7AC"/>
<path d="M39.4969 68.1049L24.3991 59.2131L15.9469 42.393C14.4309 39.3822 10.0905 37.7363 7.86845 40.1851C5.16871 42.7543 4.85721 47.0697 5.04411 49.117C5.64636 55.9013 13.8702 62.8461 16.2169 65.4956C16.2999 65.6361 16.4245 65.7766 16.5699 65.897C19.1866 68.2655 32.6437 73.6648 36.0911 74.9293C36.6102 75.13 37.2333 74.8891 37.5032 74.3873L39.8707 69.4898C40.1407 69.0081 39.9745 68.406 39.4969 68.1049Z" fill="#7FADCB"/>
<path d="M17.6678 28.0954L23.9048 32.6644C23.9718 32.7745 24.0165 32.9397 23.9942 33.0773L22.9882 38.9124C22.9882 39.0501 22.9882 39.1877 23.0776 39.2702L23.3906 39.7382C23.5247 39.9584 23.6142 40.1785 23.2565 40.3987C22.2282 40.9492 19.2997 41.9126 14.4487 38.9675C14.0016 38.6922 13.8451 37.9766 14.1804 37.4812C15.7676 34.9489 16.6842 30.0496 17.0865 28.3156C17.1536 27.9853 17.4666 27.9027 17.6678 28.1229V28.0954Z" fill="#D7AB8B"/>
<path d="M23.1362 37C23.1362 37 18.3502 35.0296 18 31C20.7549 33.9822 24 33.9112 24 33.9112L23.1362 37Z" fill="#BD8F6E"/>
<path d="M28.2726 21.6922C29.8239 20.5276 28.4115 18.876 28.4115 18.876C28.4115 18.876 28.9903 18.1984 28.4115 16.8433C27.8558 15.594 25.8645 15.361 25.7719 15.8481C25.7719 15.8481 25.2393 13.8788 22.4839 14.0059C20.4 14.0059 19.7285 15.594 19.7285 15.594C19.7285 15.594 19.2191 14.6623 17.4131 14.747C16.0933 14.8105 15.2134 16.1022 15.5607 17.0126C15.5607 17.0126 14.2177 16.3986 12.7127 17.8808C11.2076 19.363 12.6201 20.8029 13.06 20.6758C13.06 20.6758 11.6244 20.5699 11.1613 22.2004C10.4899 24.5931 12.0875 25.3342 12.7822 25.1648C12.7822 25.1648 11.8097 26.4776 13.06 26.9434C14.3335 27.4304 16.9963 24.6142 16.9963 24.6142L28.2726 21.6922Z" fill="#6B4726"/>
<path d="M28.9682 30.8701C28.9592 31.7668 28.6675 32.637 28.1358 33.3534C27.6041 34.0699 26.8603 34.5949 26.0132 34.8517C24.421 35.1669 22.7716 34.9769 21.2897 34.3075C19.8077 33.6382 18.565 32.5219 17.7307 31.1107C17.1483 30.2138 17.1267 29.9294 17.1267 29.9294C17.1267 29.9294 16.3287 29.2074 14.5384 27.8073C13.6757 27.1073 13.9992 27.5885 14.4737 26.2103C15.0345 24.6133 15.3149 24.9195 16.5444 26.1665L16.6306 26.2322C17.666 26.9541 17.2777 20.3254 17.4934 20.4129C17.7307 20.5004 21.3974 17.8533 21.8504 18.0064C22.3249 18.2033 25.8623 19.4722 25.8623 19.4722C26.6387 20.3472 27.7603 23.4538 28.4506 26.4728V26.5166C28.618 27.2261 28.7618 27.9412 28.8819 28.6605C29.0329 29.5794 29.0114 30.1044 28.9682 30.892V30.8701Z" fill="#D7AB8B"/>
<path d="M28.9791 29.4517C28.6439 29.5507 28.3506 29.4517 28.162 29.1545C27.743 28.5849 28.2039 27.7182 28.581 27V27.0248C28.7436 27.828 28.8834 28.6374 29 29.4517H28.9791ZM20.2851 27.9658C19.8661 28.3373 19.887 29.625 20.4946 30.3927C21.123 31.1604 22.9456 31.2347 23.5741 30.4175C23.9722 29.9222 23.9303 28.8573 23.0923 28.3373C22.2543 27.8172 20.7669 27.5943 20.2851 27.9658Z" fill="#D7A079"/>
<path d="M21.1849 26C21.2606 26 21.3742 25.9664 21.45 25.8318C21.5636 25.5627 22.3398 24.116 23.0025 23.9815C23.1161 23.9815 23.2486 23.8805 23.2486 23.645C23.2486 23.4095 23.135 23.174 23.0214 23.174C21.431 22.6694 21.0334 25.3272 21.0145 25.4281C20.9766 25.6299 21.0145 25.8654 21.1092 25.9664L21.1849 26ZM26.8459 24.1497C26.8838 24.1497 26.9027 24.1497 26.9406 24.0824C27.0163 23.9478 27.0163 23.7123 26.9595 23.5105C26.7323 22.5012 26.0886 21.3574 24.9337 22.4339C24.839 22.5348 24.8011 22.7703 24.839 23.0058C24.8958 23.2077 24.9905 23.2413 25.1041 23.2077C26.0507 22.8713 26.5051 23.8133 26.6755 23.9815C26.7323 24.0487 26.7702 24.1833 26.8459 24.1497Z" fill="#591D0B"/>
<path d="M15.9431 29.8895C14.7947 30.4861 12.9114 27.8613 13.0032 23.3754C13.0721 19.4143 16.747 18.9848 16.747 18.9848C16.747 18.9848 14.8636 15.5726 24.9465 16.6941C25.1532 16.718 24.8317 15.9544 25.0154 16.0021C28.2539 17.0521 26.5543 20.0586 26.5543 20.0586C26.5543 20.0586 25.8652 19.7245 24.2804 19.8916C21.6621 20.2018 19.7558 20.9653 18.6074 22.3254C18.2283 22.7836 17.9885 23.3483 17.9184 23.948C17.6887 25.8808 18.0791 28.267 18.0791 28.2908H16.1958C16.1958 28.2908 16.4714 27.5511 16.6551 29.1976C16.8848 30.8679 17.2753 29.4123 17.2753 29.4123" fill="#6B4726"/>
<path d="M14.9854 29.6402C16.4572 30.8489 17.5035 29.9801 17.5035 29.9801C17.5035 29.9801 17.5035 30.2256 18 31L17.8049 28.4125C17.5921 27.997 17.3084 27.0716 17.0956 26.7883L17.0247 26.7316C16.0139 25.6551 14.5421 25.7495 14.0988 27.1283C13.7796 28.1481 14.2761 29.0358 14.9854 29.6402Z" fill="#D7AB8B"/>
<path d="M26.5625 25.5676C26.5051 25.5676 26.4482 25.5602 26.3951 25.546C26.342 25.5317 26.2938 25.5108 26.2531 25.4844C26.2125 25.4581 26.1803 25.4268 26.1583 25.3924C26.1363 25.358 26.125 25.3211 26.125 25.2838C26.125 25.2465 26.1363 25.2096 26.1583 25.1752C26.1803 25.1408 26.2125 25.1095 26.2531 25.0831C26.2938 25.0568 26.342 25.0359 26.3951 25.0216C26.4482 25.0073 26.5051 25 26.5625 25C26.6785 25 26.7898 25.0299 26.8719 25.0831C26.9539 25.1363 27 25.2085 27 25.2838C27 25.359 26.9539 25.4312 26.8719 25.4844C26.7898 25.5377 26.6785 25.5676 26.5625 25.5676ZM23.4375 26C23.3215 26 23.2102 25.9701 23.1281 25.9169C23.0461 25.8637 23 25.7915 23 25.7162C23 25.641 23.0461 25.5688 23.1281 25.5156C23.2102 25.4623 23.3215 25.4324 23.4375 25.4324C23.5535 25.4324 23.6648 25.4623 23.7469 25.5156C23.8289 25.5688 23.875 25.641 23.875 25.7162C23.875 25.7915 23.8289 25.8637 23.7469 25.9169C23.6648 25.9701 23.5535 26 23.4375 26Z" fill="#591D0B"/>
<path d="M24.2384 31.0398C25.0469 31.3431 25.9944 31.466 26.9277 31.3887C27.0131 31.3887 27.0345 31.4424 26.9277 31.523C26.8424 31.6035 26.757 31.6572 26.6289 31.7243C25.9672 32.1136 24.7293 32.221 24.0249 31.1606C23.9396 31.0263 24.089 30.9592 24.2384 31.0263V31.0398Z" fill="#B2412B"/>
<path d="M51.4867 10.1659C51.1845 10.2575 50.329 10.5191 49.5847 10.7455C48.8405 10.9703 48.2075 11.1693 48.1789 11.1838C48.1097 11.2223 48.0676 11.2721 48.03 11.3604C47.9924 11.4471 47.9909 11.5209 48.021 11.826C48.0631 12.2418 48.0736 12.3606 48.0902 12.5243C48.1142 12.7828 48.1293 12.8454 48.1939 12.9321L48.2541 13.0124L48.2165 13.0814C48.1488 13.2066 48.1443 13.2516 48.1714 13.5261C48.2375 14.1892 48.2435 14.2149 48.3548 14.3128L48.4104 14.3626L48.3713 14.4059C48.3112 14.4733 48.2691 14.5841 48.2691 14.6772C48.2691 14.7495 48.2917 14.9437 48.3443 15.3146C48.3608 15.4334 48.3984 15.5249 48.448 15.5731C48.4886 15.6116 48.4871 15.6276 48.4435 15.7127C48.3909 15.8155 48.3849 15.8636 48.4044 16.0756C48.4285 16.3437 48.442 16.493 48.4856 16.9955C48.5067 17.2379 48.5322 17.5124 48.5397 17.6055C48.5608 17.8223 48.5788 18.0294 48.6074 18.3681C48.648 18.8369 48.66 18.9718 48.6976 19.3715C48.7021 19.4197 48.7157 19.5786 48.7277 19.7247C48.7578 20.0859 48.7788 20.3155 48.7953 20.4873C48.8134 20.6719 48.8359 20.9352 48.8555 21.1696C48.8735 21.388 48.8931 21.6111 48.9156 21.8439C48.9232 21.937 48.9472 22.2067 48.9683 22.4459C49.0359 23.2182 49.0585 23.4686 49.075 23.634C49.087 23.7528 49.1216 23.8282 49.1983 23.9021C49.2645 23.9663 49.3457 24 49.4344 24C49.4885 24 49.7276 23.9743 50.0659 23.931C50.132 23.9229 50.2884 23.9037 50.4117 23.8908C50.6162 23.8684 50.7816 23.8491 50.9575 23.825C50.9921 23.8202 51.0567 23.7961 51.1003 23.772C51.1544 23.7415 51.2131 23.7239 51.2837 23.7174C51.6626 23.6805 51.7333 23.6629 51.8145 23.5874C51.8897 23.5168 51.9197 23.4333 51.9378 23.231C51.9468 23.1347 51.9603 22.9805 51.9694 22.8874C52.0145 22.3833 52.031 22.2051 52.0445 22.0606C52.0521 21.9723 52.0656 21.8278 52.0731 21.7395C52.1002 21.4329 52.1333 21.0637 52.1483 20.8999C52.1558 20.81 52.1708 20.6623 52.1784 20.5708C52.1874 20.4809 52.2009 20.3348 52.2084 20.2465C52.2355 19.9398 52.2686 19.5706 52.2836 19.4068C52.3212 19.0055 52.3302 18.8995 52.3513 18.6571C52.3633 18.5158 52.3798 18.3264 52.3889 18.2349C52.44 17.6842 52.4716 17.331 52.4926 17.0838C52.5016 16.9858 52.5152 16.8317 52.5242 16.7386C52.5332 16.6455 52.5467 16.501 52.5542 16.4175C52.5618 16.334 52.5753 16.1815 52.5843 16.0804C52.5918 15.9792 52.6054 15.8267 52.6144 15.7432C52.6219 15.6598 52.6354 15.5104 52.6445 15.4141C52.6535 15.3162 52.667 15.1685 52.6745 15.085C52.6821 15.0015 52.7001 14.8137 52.7121 14.6676C52.7242 14.5215 52.7422 14.3337 52.7497 14.2502C52.7632 14.1153 52.8099 13.5936 52.855 13.0862C52.864 12.9883 52.8775 12.8406 52.885 12.7571C52.8986 12.6175 52.9181 12.4007 52.9602 11.9143C52.9692 11.8163 52.9828 11.6686 52.9918 11.5836C53.0113 11.4053 52.9978 11.3347 52.9316 11.2368C52.9061 11.1999 52.858 11.1565 52.8174 11.1356C52.7497 11.1003 52.6775 11.0971 52.5182 11.1228C52.4956 11.126 52.4776 11.1083 52.4505 11.057C52.4144 10.9863 52.4144 10.9831 52.431 10.8162C52.464 10.4967 52.47 10.3265 52.449 10.2607C52.4249 10.1804 52.3227 10.0632 52.246 10.0263C52.1408 9.9749 52.0701 9.98775 51.4867 10.1659Z" fill="#FBCB6E"/>
<path d="M50.6417 26.0248C50.4796 26.0509 50.291 26.1081 50.1429 26.1784C50.0853 26.2062 50.0167 26.2274 49.9902 26.2274C49.92 26.2274 49.7003 26.2699 49.5647 26.3092C48.882 26.5053 48.2787 27.1542 48.0839 27.9011C47.9577 28.3865 47.9748 28.9537 48.1291 29.4146C48.3224 29.9965 48.751 30.5064 49.2701 30.7728C49.5865 30.9346 49.8655 31 50.2442 31C50.6947 31 51.061 30.8823 51.446 30.6143C51.552 30.5407 51.8668 30.2318 51.937 30.1321C51.9526 30.1092 52.0196 30.0537 52.0835 30.0079C52.3578 29.8118 52.5293 29.6271 52.6929 29.3443C52.9236 28.9488 53.0343 28.4552 52.9906 28.0171C52.9797 27.9142 52.961 27.7801 52.947 27.718C52.7989 27.0332 52.3906 26.4906 51.7951 26.1931C51.4553 26.0215 51.0361 25.961 50.6417 26.0248Z" fill="#FBCB6E"/>
</g>
<defs>
<clipPath id="clip0_53_2">
<rect width="100" height="100" fill="white"/>
</clipPath>
</defs>
</svg>
