<svg width="100" height="100" viewBox="0 0 100 100" fill="none" xmlns="http://www.w3.org/2000/svg">
<g clip-path="url(#clip0_53_374)">
<path d="M0.499591 32.1753C1.21213 16.7514 5.64984 -5.447 46.8018 1.21503C87.9538 7.87705 94.2166 36.4125 96.8417 52.6488C99.4668 68.8852 112.717 102.558 54.8897 99.8455C4.13726 97.4206 -2.12553 97.3206 0.499591 32.1753Z" fill="#EDEEEE"/>
<path d="M80 45.9977C80 45.9977 80.1168 42.9118 80.3504 43.0019C80.5255 43.1821 81 45.9076 81 45.9076L80.5255 47L80 45.9977Z" fill="#3648AA"/>
<path d="M78 53L79.6832 46.1616C79.6832 46.1616 80.2376 46.404 80.9604 46L84 52.4343L78 53Z" fill="#FFD477"/>
<path d="M87.8805 86L87.9826 86.8699C88.0279 87.2492 87.9845 87.6326 87.8551 87.9969C87.7258 88.3612 87.5131 88.699 87.2299 88.9899C86.9467 89.2808 86.5988 89.5188 86.2072 89.6896C85.8156 89.8604 85.3883 89.9605 84.9512 89.9838H84.6787C84.243 90.0246 83.8024 89.9882 83.3833 89.8768C82.9642 89.7655 82.5754 89.5814 82.2402 89.3357C81.905 89.09 81.6303 88.7878 81.4328 88.4473C81.2353 88.1068 81.119 87.735 81.0908 87.3543L81 86.4745L87.8918 86H87.8805Z" fill="#FF7C22"/>
<path d="M84.6678 52.1343L87.4863 84.7197L80.5192 85.0611L77.619 52.5532L84.6678 52.1343Z" fill="#A7C8DD"/>
<path d="M88 86.5422L80.7642 87L80.5731 85.312L80.4776 84.158L80 80.5341L87.3313 80L87.7134 83.624L87.809 84.8447L88 86.5422Z" fill="#354A63"/>
<path d="M61.3351 80.8136C61.164 82.0711 60.4944 83.212 59.4712 83.9891C58.4481 84.7662 57.1538 85.117 55.8687 84.9655L20.145 80.1809C19.5141 80.1026 18.9057 79.9007 18.356 79.5872C17.8063 79.2736 17.3267 78.8549 16.9455 78.3559C16.5644 77.8569 16.2896 77.2878 16.1375 76.6826C15.9855 76.0773 15.9592 75.4483 16.0603 74.8328L22.7471 26.1864C22.9182 24.9289 23.5879 23.788 24.611 23.0109C25.6342 22.2338 26.9285 21.883 28.2136 22.0345L63.8566 26.74C64.4865 26.8184 65.094 27.02 65.6429 27.3329C66.1918 27.6458 66.6709 28.0636 67.0519 28.5615C67.4329 29.0594 67.708 29.6273 67.8608 30.2314C68.0135 30.8355 68.0409 31.4635 67.9413 32.0782L61.3351 80.8136Z" fill="#9EC1D8"/>
<path d="M60.0652 78.8136C59.8875 80.0711 59.1919 81.212 58.1292 81.9891C57.0665 82.7662 55.7222 83.117 54.3874 82.9655L17.2933 78.1809C16.64 78.1013 16.0102 77.8988 15.4413 77.5854C14.8723 77.272 14.3758 76.854 13.9812 76.3562C13.5866 75.8585 13.3018 75.291 13.1438 74.6875C12.9857 74.084 12.9577 73.4567 13.0612 72.8427L20.0065 24.1864C20.1842 22.9289 20.8797 21.788 21.9424 21.0109C23.0051 20.2338 24.3495 19.883 25.6843 20.0345L62.705 24.74C63.3594 24.8195 63.9902 25.0223 64.5599 25.3364C65.1296 25.6504 65.6266 26.0693 66.0214 26.5682C66.4162 27.0671 66.7007 27.6357 66.858 28.2404C67.0153 28.8451 67.0422 29.4734 66.9372 30.0881L60.0757 78.8234L60.0652 78.8136Z" fill="white"/>
<path d="M34.9597 35.654C34.7569 36.9599 34.0604 38.1372 33.0148 38.9409C31.9693 39.7447 30.6553 40.1131 29.3461 39.9696C28.0374 39.7842 26.8532 39.0916 26.0475 38.0403C25.2417 36.9891 24.8786 35.6628 25.0359 34.346C25.2387 33.0401 25.9352 31.8628 26.9808 31.0591C28.0263 30.2553 29.3403 29.8869 30.6496 30.0304C31.9633 30.2087 33.1536 30.9008 33.9609 31.956C34.7683 33.0112 35.1273 34.3439 34.9597 35.6636V35.654Z" stroke="#A7C8DD" stroke-width="1.62"/>
<path d="M27 34.6537L29.5839 39L36 31.6806L34.1226 31L29.5839 37.5552L28.1806 34.1881L27 34.6657V34.6537Z" fill="#FF7C22" stroke="#FF7C22" stroke-width="0.81" stroke-miterlimit="10" stroke-linecap="round" stroke-linejoin="round"/>
<path d="M32.9451 52.654C32.7223 53.9599 31.9569 55.1372 30.8079 55.9409C29.6589 56.7447 28.2149 57.1131 26.7761 56.9696C25.3379 56.7842 24.0366 56.0916 23.1511 55.0403C22.2657 53.9891 21.8666 52.6628 22.0395 51.346C22.2623 50.0401 23.0278 48.8629 24.1767 48.0591C25.3257 47.2553 26.7697 46.8869 28.2086 47.0304C28.928 47.109 29.623 47.3181 30.2528 47.6454C30.8825 47.9727 31.4342 48.4117 31.8755 48.9365C32.3167 49.4613 32.6387 50.0614 32.8224 50.7014C33.0061 51.3415 33.0478 52.0086 32.9451 52.6636V52.654Z" stroke="#A7C8DD" stroke-width="1.62"/>
<path d="M25 50.6726L27.5839 54L34 48.5022L32.1226 48L27.5742 52.9148L26.171 50.3857L25 50.6726Z" fill="#FF7C22" stroke="#FF7C22" stroke-width="0.81" stroke-miterlimit="10" stroke-linecap="round" stroke-linejoin="round"/>
<path d="M29.9651 69.7402C29.6299 72.3742 26.8222 74.3549 23.8678 73.9465C20.7249 73.5381 18.6925 70.8939 19.0382 68.2598C19.3734 65.6258 22.1706 63.6451 25.1355 64.0535C28.1841 64.4619 30.3004 67.0143 29.9651 69.7402Z" stroke="#A7C8DD" stroke-width="1.62"/>
<path d="M23 67.2344L25.2748 71L31 64.6059L29.3472 64L25.2748 69.6391L24.0394 66.7869L23 67.2344Z" fill="#FF7C22" stroke="#FF7C22" stroke-width="0.81" stroke-miterlimit="10" stroke-linecap="round" stroke-linejoin="round"/>
<path d="M34.2632 25.5555C33.4427 25.4779 32.8653 24.7698 33.0273 23.9841L33.8479 18.1932C33.9289 17.4172 34.6685 16.8643 35.489 17.0292C36.2995 17.0971 36.8769 17.8052 36.7148 18.5812L35.9044 24.3818C35.8132 25.0802 35.0737 25.6331 34.2632 25.5458V25.5555ZM40.7366 26.3315C39.916 26.2539 39.3386 25.5555 39.5007 24.7698L40.3212 18.9789C40.4023 18.2029 41.1418 17.65 41.9623 17.8052C42.7728 17.9604 43.3502 18.5812 43.1881 19.3669L42.3777 25.1578C42.2055 25.9435 41.4659 26.4964 40.7366 26.3315ZM47.1187 27.1948C46.3083 27.1172 45.7308 26.4188 45.8929 25.6331L46.7034 19.8422C46.7945 19.0662 47.5341 18.5133 48.3546 18.6685C49.165 18.7461 49.7425 19.4445 49.5703 20.2302L48.7598 26.0211C48.6788 26.7292 47.9494 27.2821 47.1187 27.1948ZM53.511 27.9805C52.7005 27.9029 52.1231 27.2045 52.2852 26.4091L53.0956 20.6182C53.1868 19.8422 53.9263 19.2893 54.7368 19.4542C55.5573 19.5221 56.1348 20.2302 55.9727 21.0062L55.1521 26.8068C55.0711 27.5828 54.3315 28.1357 53.511 27.9708V27.9805Z" fill="#354A63"/>
<path d="M60 34.7279L39.6881 32L39.3882 34.2151L59.6897 36.943L60 34.7279ZM52.171 38.471L39.078 36.7071L38.7677 38.9223L51.8711 40.6861L52.1814 38.471H52.171ZM55.3047 69.0725L35.0032 66.3446L34.6929 68.5597L55.0048 71.2876L55.315 69.0725H55.3047ZM47.4033 72.8054L34.3103 71.0415L34 73.2566L47.1034 75L47.4033 72.7951V72.8054ZM50.5887 51.3926L37.3198 49.6082L37.0199 51.8233L50.2784 53.5974L50.5887 51.3926ZM56.8974 57.156L36.5959 54.4178L36.2856 56.633L56.5975 59.3608L56.9077 57.156H56.8974Z" fill="#ADD4ED"/>
</g>
<defs>
<clipPath id="clip0_53_374">
<rect width="100" height="100" fill="white"/>
</clipPath>
</defs>
</svg>
