<svg width="50" height="50" viewBox="0 0 50 50" fill="none" xmlns="http://www.w3.org/2000/svg">
<path d="M24.5 2C14.8389 2 7 8.76779 7 17.1071C7 30.5357 24.5 49 24.5 49C24.5 49 42 30.5357 42 17.1071C42 8.76779 34.1611 2 24.5 2ZM24.5 25.5C23.1155 25.5 21.7622 25.1062 20.611 24.3684C19.4599 23.6307 18.5627 22.582 18.0328 21.3552C17.503 20.1283 17.3644 18.7783 17.6345 17.4758C17.9046 16.1734 18.5713 14.977 19.5503 14.038C20.5292 13.099 21.7765 12.4595 23.1344 12.2004C24.4922 11.9414 25.8997 12.0743 27.1788 12.5825C28.4579 13.0907 29.5511 13.9513 30.3203 15.0555C31.0895 16.1596 31.5 17.4578 31.5 18.7857C31.498 20.5659 30.7598 22.2725 29.4475 23.5313C28.1352 24.79 26.3559 25.4981 24.5 25.5Z" fill="#78ADCE"/>
</svg>
