<svg width="50" height="50" viewBox="0 0 50 50" fill="none" xmlns="http://www.w3.org/2000/svg">
<path d="M5.7 43C4.4075 43 3.30065 42.559 2.37945 41.677C1.45825 40.795 0.998437 39.736 1 38.5V11.5C1 10.2625 1.4606 9.20275 2.3818 8.32075C3.303 7.43875 4.40907 6.9985 5.7 7H43.3C44.5925 7 45.6993 7.441 46.6205 8.323C47.5417 9.205 48.0016 10.264 48 11.5V38.5C48 39.7375 47.5394 40.7972 46.6182 41.6792C45.697 42.5612 44.5909 43.0015 43.3 43H5.7ZM24.5 27.25L43.3 16V11.5L24.5 22.75L5.7 11.5V16L24.5 27.25Z" fill="#78ADCE"/>
</svg>
