<svg width="100" height="100" viewBox="0 0 100 100" fill="none" xmlns="http://www.w3.org/2000/svg">
<g clip-path="url(#clip0_53_408)">
<mask id="mask0_53_408" style="mask-type:luminance" maskUnits="userSpaceOnUse" x="0" y="0" width="100" height="100">
<path d="M0 0H100V100H0V0Z" fill="white"/>
</mask>
<g mask="url(#mask0_53_408)">
<path d="M9.375 88.5625C12.1289 92.1965 15.6873 95.1429 19.7711 97.1707C23.8549 99.1985 28.353 100.253 32.9125 100.25C47.1125 100.163 56.5625 94.925 71.5875 77.4875C91.9625 56.7625 97.6375 50.9875 99.275 38.4625C100.125 23.4375 91.4625 16.2375 90.2875 15.1625C70.4375 -2.62496 34.5375 -7.94996 13.85 17C-6.075 40.975 -2.125 73.4375 9.375 88.5625Z" fill="#EDEEEE"/>
<path d="M50.7375 30.5C50.7375 28.6375 49.1375 27.05 47.0875 27.05H23.6375C21.6875 27.05 20 28.6375 20 30.5125L20.0875 79.1C20.0875 80.975 21.6875 82.5626 23.725 82.5626H47.1875C49.1375 82.5626 50.825 80.9625 50.825 79.1L50.7375 30.5125V30.5Z" fill="#354A63"/>
<path d="M48.125 34.15C48.125 33.4 47.55 32.8 46.8125 32.8H23.9125C23.1625 32.8 22.6 33.3875 22.6 34.15L22.6875 70.7251C22.6875 71.4876 23.25 72.0751 23.9875 71.9875H46.8875C47.6375 71.9875 48.2 71.4001 48.2 70.6501L48.125 34.15Z" fill="#A7C8DD"/>
<path d="M38.3375 76.7125C37.969 76.3873 37.4913 76.2131 37 76.225H33.825C33.575 76.225 33.325 76.3125 33.075 76.3875C32.3125 76.6375 31.9 77.2625 31.9 77.9875C31.9 78.95 32.7375 79.7375 33.825 79.7375H37C37.25 79.7375 37.5 79.6625 37.75 79.5875C38.5 79.3375 38.925 78.7125 38.925 77.9875C38.925 77.425 38.7625 77.025 38.3375 76.7125ZM38.8375 29.4375H32.0875C31.8753 29.4375 31.6718 29.5218 31.5218 29.6718C31.3718 29.8218 31.2875 30.0253 31.2875 30.2375C31.2875 30.6875 31.6375 31.0375 32.075 31.0375H38.825C39.275 31.0375 39.6375 30.6875 39.6375 30.2375C39.6375 30.0253 39.5532 29.8218 39.4032 29.6718C39.2532 29.5218 39.0497 29.4375 38.8375 29.4375Z" fill="#7FADCB"/>
<path d="M46.375 30.95C46.4756 30.9634 46.578 30.9552 46.6751 30.9258C46.7723 30.8965 46.8621 30.8467 46.9385 30.7798C47.0149 30.713 47.0761 30.6305 47.118 30.5381C47.16 30.4456 47.1817 30.3453 47.1817 30.2438C47.1817 30.1422 47.16 30.0419 47.118 29.9494C47.0761 29.857 47.0149 29.7746 46.9385 29.7077C46.8621 29.6408 46.7723 29.591 46.6751 29.5617C46.578 29.5323 46.4756 29.5241 46.375 29.5375C46.2038 29.5603 46.0468 29.6445 45.9331 29.7744C45.8193 29.9043 45.7567 30.0711 45.7567 30.2438C45.7567 30.4164 45.8193 30.5832 45.9331 30.7131C46.0468 30.843 46.2038 30.9272 46.375 30.95Z" fill="#2D4375"/>
<path fill-rule="evenodd" clip-rule="evenodd" d="M49.5625 12.9375C47.4408 12.9375 45.4059 13.7804 43.9056 15.2806C42.4054 16.7809 41.5625 18.8158 41.5625 20.9375V39.225C41.5625 41.3467 42.4054 43.3816 43.9056 44.8819C45.4059 46.3821 47.4408 47.225 49.5625 47.225H70.3125L82.1875 55.225L79.4875 47.15C81.4028 46.8872 83.1581 45.9398 84.4289 44.4829C85.6996 43.026 86.3998 41.1582 86.4 39.225V20.9375C86.4 18.8158 85.5571 16.7809 84.0569 15.2806C82.5566 13.7804 80.5217 12.9375 78.4 12.9375H49.5625Z" fill="#FBE46E"/>
<path d="M48.3875 27.9751H78.375M48.3875 33.9669H78.375M48.3875 39.9751H78.375" stroke="white" stroke-width="0.96" stroke-linecap="round" stroke-linejoin="round"/>
<path fill-rule="evenodd" clip-rule="evenodd" d="M35.7875 57.5001C33.5572 55.5862 32.0123 52.9968 31.3875 50.1251C31.3162 49.729 31.2785 49.3276 31.275 48.9251C32.1625 49.2126 33.175 49.1001 34 48.5251L34.75 48.0001C35.4125 47.5376 35.575 46.6251 35.1125 45.9626L33.2625 43.3126C33.1526 43.1549 33.0127 43.0205 32.8508 42.9169C32.6889 42.8133 32.5081 42.7427 32.3189 42.709C32.1297 42.6753 31.9357 42.6793 31.748 42.7207C31.5603 42.762 31.3826 42.84 31.225 42.9501L30.475 43.4751C29.6875 44.0251 29.225 44.8751 29.175 45.7751L29.1375 45.8251C28.4721 47.3244 28.2971 48.9955 28.6375 50.6001C29.3168 53.868 30.9837 56.8482 33.4125 59.1376C34.4746 60.1967 35.8203 60.926 37.2875 61.2376C38.275 61.7376 39.5 61.7001 40.4625 61.0251L41.2125 60.5126C41.875 60.0501 42.0375 59.1376 41.575 58.4626L39.7375 55.8251C39.6285 55.6647 39.4887 55.5276 39.3262 55.4217C39.1637 55.3158 38.9818 55.2433 38.791 55.2084C38.6002 55.1735 38.4044 55.1769 38.215 55.2184C38.0255 55.2599 37.8462 55.3387 37.6875 55.4501L36.9375 55.9751C36.3875 56.3626 36 56.9001 35.7875 57.5001Z" fill="white"/>
</g>
<path d="M64.5233 22.3322C65.4182 22.327 66.0909 21.6533 66.026 20.8274C65.961 20.0015 65.1828 19.3362 64.288 19.3414L50.5289 19.4209C49.634 19.4261 48.9613 20.0998 49.0262 20.9257C49.0912 21.7516 49.8693 22.4169 50.7642 22.4117L64.5233 22.3322Z" fill="#FF964E"/>
</g>
<defs>
<clipPath id="clip0_53_408">
<rect width="100" height="100" fill="white"/>
</clipPath>
</defs>
</svg>
