<svg width="50" height="50" viewBox="0 0 50 50" fill="none" xmlns="http://www.w3.org/2000/svg">
<path d="M6.75407 33.8356V41.104C6.75383 41.6244 6.95099 42.1256 7.30577 42.5063C7.66054 42.887 8.14652 43.119 8.66563 43.1554C9.56386 43.2171 10.2977 43.25 10.865 43.25C29.0289 43.25 43.752 28.5261 43.752 10.3611C43.752 9.79378 43.7212 9.05995 43.6575 8.16167C43.621 7.64252 43.3891 7.15652 43.0083 6.80173C42.6276 6.44694 42.1265 6.24976 41.6061 6.25H34.3381C34.0831 6.24974 33.8372 6.34427 33.648 6.51521C33.4589 6.68615 33.34 6.92131 33.3145 7.175C33.2672 7.64778 33.224 8.02394 33.1829 8.30967C32.7744 11.1606 31.9373 13.9333 30.7 16.5339C30.5047 16.9451 30.6321 17.4363 31.0021 17.6994L35.4378 20.8691C32.7257 27.1888 27.6897 32.2251 21.3703 34.9373L18.2049 30.5097C18.0756 30.3288 17.8868 30.199 17.6716 30.1431C17.4563 30.0871 17.2283 30.1084 17.0272 30.2034C14.427 31.4386 11.6551 32.2737 8.8054 32.6803C8.51969 32.7214 8.14355 32.7646 7.67491 32.8119C7.4216 32.8379 7.18695 32.957 7.01644 33.1461C6.84594 33.3352 6.75376 33.5809 6.75407 33.8356Z" fill="#78ADCE"/>
</svg>
