<svg width="50" height="42" viewBox="0 0 50 42" fill="none" xmlns="http://www.w3.org/2000/svg">
<g filter="url(#filter0_d_22_3)">
<path d="M7.68958 5.10834C10.6125 1.93959 15.0354 0.333344 20.8333 0.333344H22.9167V6.20626L21.2417 6.54168C18.3875 7.11251 16.4021 8.23543 15.3396 9.88334C14.7852 10.7711 14.4708 11.7876 14.4271 12.8333H20.8333C21.3859 12.8333 21.9158 13.0528 22.3065 13.4435C22.6972 13.8342 22.9167 14.3641 22.9167 14.9167V29.5C22.9167 31.7979 21.0479 33.6667 18.75 33.6667H6.25C5.69746 33.6667 5.16756 33.4472 4.77686 33.0565C4.38616 32.6658 4.16666 32.1359 4.16666 31.5833V21.1667L4.17291 15.0854C4.15416 14.8542 3.75833 9.37501 7.68958 5.10834ZM41.6667 33.6667H29.1667C28.6141 33.6667 28.0842 33.4472 27.6935 33.0565C27.3028 32.6658 27.0833 32.1359 27.0833 31.5833V21.1667L27.0896 15.0854C27.0708 14.8542 26.675 9.37501 30.6062 5.10834C33.5292 1.93959 37.9521 0.333344 43.75 0.333344H45.8333V6.20626L44.1583 6.54168C41.3042 7.11251 39.3187 8.23543 38.2562 9.88334C37.7019 10.7711 37.3874 11.7876 37.3437 12.8333H43.75C44.3025 12.8333 44.8324 13.0528 45.2231 13.4435C45.6138 13.8342 45.8333 14.3641 45.8333 14.9167V29.5C45.8333 31.7979 43.9646 33.6667 41.6667 33.6667Z" fill="#FFC107"/>
</g>
<defs>
<filter id="filter0_d_22_3" x="0.153564" y="0.333344" width="49.6797" height="41.3333" filterUnits="userSpaceOnUse" color-interpolation-filters="sRGB">
<feFlood flood-opacity="0" result="BackgroundImageFix"/>
<feColorMatrix in="SourceAlpha" type="matrix" values="0 0 0 0 0 0 0 0 0 0 0 0 0 0 0 0 0 0 127 0" result="hardAlpha"/>
<feOffset dy="4"/>
<feGaussianBlur stdDeviation="2"/>
<feComposite in2="hardAlpha" operator="out"/>
<feColorMatrix type="matrix" values="0 0 0 0 0 0 0 0 0 0 0 0 0 0 0 0 0 0 0.25 0"/>
<feBlend mode="normal" in2="BackgroundImageFix" result="effect1_dropShadow_22_3"/>
<feBlend mode="normal" in="SourceGraphic" in2="effect1_dropShadow_22_3" result="shape"/>
</filter>
</defs>
</svg>
