<svg width="100" height="100" viewBox="0 0 100 100" fill="none" xmlns="http://www.w3.org/2000/svg">
<path d="M97.5846 29.0576C104.848 50.6363 95.1027 77.732 76.7364 90.2613C58.5687 102.668 11.3624 106.909 1.9807 71.3494C-10.6275 23.5843 75.3466 -36.9374 97.5846 29.0576Z" fill="#EDEEEE"/>
<path d="M69.3726 47.8381L56.1953 47.8633L53.5309 43.7856C53.5309 43.7856 54.7696 44.0747 55.3726 41.7195C55.723 40.0222 55.8952 38.2992 55.8868 36.573V36.4306C55.8354 35.1482 56.0551 36.1498 56.7469 35.3745C59.3646 32.445 65.8948 32.6923 65.8948 32.6923C64.8805 39.1588 67.0635 42.0799 67.0635 42.0799L69.3726 47.8381Z" fill="#E4A79A"/>
<path d="M49.3064 46.095C49.3064 46.095 53.6856 45.0497 55.3474 44.3144C55.3474 44.3144 55.7035 46.5242 60.3668 46.095C65.8694 45.5902 66.8232 43.1936 66.8232 43.1936L74.6532 46.095L73.3814 53.567L64.2373 77.0481H54.5293L49.3064 46.095Z" fill="white"/>
<path d="M64.0921 33.8545C62.6391 37.3499 59.5196 38.9675 56.6992 39.6915C56.8274 38.7036 56.9343 37.4743 56.9129 36.5241C56.9471 35.6757 57.2121 36.0905 57.8872 35.4457L64.0921 33.8545Z" fill="#BA6958"/>
<path d="M46.1609 82.3283L44.9838 73.4851C44.9838 73.4851 40.5738 78.4114 35.0684 82.833C30.3151 86.6539 21.5114 80.276 21.5114 80.276L18.6791 76.5176C19.4556 76.3091 28.5372 73.3349 31.435 71.4829C33.0044 70.4818 41.1787 49.6336 42.8871 48.4031C44.2931 47.3894 49.5655 45.4331 52.0709 44.6656C52.6022 44.5071 53.0068 44.3986 53.2275 44.3611H53.2316C53.2357 44.3611 53.248 44.4403 53.2643 44.5822C53.5259 46.7429 55.1853 64.4042 56.1457 73.3224C56.3664 75.3538 56.5463 76.9348 56.6689 77.7732C57.3555 82.5327 46.165 82.3324 46.165 82.3324L46.1609 82.3283Z" fill="#354A63"/>
<path d="M55.2416 22.0245C53.2173 20.1985 52.7177 14.9334 55.2416 12.4335C55.4957 12.2031 55.7584 11.977 55.9867 11.7813C56.0494 11.7295 56.1243 11.6949 56.2042 11.6809C56.2841 11.6669 56.3662 11.6741 56.4425 11.7017C56.5188 11.7293 56.5868 11.7763 56.6398 11.8383C56.6927 11.9002 56.7289 11.975 56.7447 12.0553C56.8825 12.6813 57.2357 13.4639 58.1186 13.6291C58.7302 13.7422 60.8148 15.2117 62.3223 15.3812C63.7005 15.5334 62.529 15.5899 62.529 14.1204C63.2569 14.2987 65.8454 15.0073 67.4433 15.4421C68.7569 15.803 69.9241 16.5769 70.7553 17.6638C72.4997 19.9463 73.5893 23.6332 71.0051 27.3243C67.3743 32.5111 67.2494 25.207 67.2494 25.207L59.6864 20.3811L55.2416 22.0202V22.0245Z" fill="#6B3626"/>
<path d="M96.8317 80.5503V88.7221H2.83733V80.5503H96.8317Z" fill="#C4DCEB"/>
<path d="M73.5971 80.5503V88.7221H2.83733V80.5503H73.5971Z" fill="#9EC1D8"/>
<path d="M81.8693 50.1922L80.4164 66.2757L79.8955 78.2155L63.0359 77.885L63.6985 73.4355C64.8544 65.7469 67.2486 50.122 68.6969 43.1936C68.6969 43.1936 69.4188 43.4002 70.5154 43.7307C73.6269 44.6479 79.7721 46.507 80.9875 47.1597C82.6323 48.0356 81.8693 50.1922 81.8693 50.1922Z" fill="#354A63"/>
<path d="M70.3182 32.5206C68.8845 33.6509 67.398 32.7424 67.398 32.7424C67.398 32.7424 66.1849 32.8021 64.0675 35.0627C62.153 37.1059 57.7638 37.4855 56.436 37.3234C54.7421 37.1187 51.9851 35.886 52.5497 30.6694C52.6247 29.9571 52.8144 29.2363 52.982 28.5111C53.7937 24.9922 55.1082 21.4264 56.0522 20.3856C56.0522 20.3856 60.2959 18.8927 60.8428 18.688C61.3898 18.4875 65.8143 21.4775 66.0922 21.3752C66.3745 21.2771 66.3481 28.8652 67.6803 27.5685C69.1669 26.1311 71.7915 26.0287 72.3871 27.8756C72.9826 29.7225 71.7563 31.386 70.3182 32.5206Z" fill="#E4A79A"/>
<path d="M99.9958 77.0481H0.725098V80.5503H100V77.0481H99.9958Z" fill="#7FADCB"/>
<path d="M42.9674 70.4429C42.9756 70.5407 42.9621 70.6391 42.9275 70.7318C42.893 70.8245 42.8382 70.9096 42.7666 70.9817C42.6951 71.0538 42.6082 71.1114 42.5116 71.1509C42.415 71.1904 42.3106 71.2109 42.205 71.2112H7.34979C6.94718 71.2112 5.86358 70.8728 5.8336 70.4986L5.82932 70.4071L5.42243 61.0126L4.9513 50.1452C4.94427 50.0486 4.95864 49.9516 4.99353 49.8603C5.02841 49.769 5.08306 49.6854 5.15411 49.6145C5.22516 49.5436 5.31109 49.487 5.4066 49.4482C5.50211 49.4094 5.60516 49.3892 5.70939 49.3889L39.7894 49.0306C40.1877 49.0306 41.3013 49.6715 41.3313 50.0457L42.9674 70.4429Z" fill="#77B7DF"/>
<path d="M95.7755 80.5503V87.5547" stroke="#C3DFF1" stroke-width="0.68" stroke-miterlimit="10" stroke-linecap="round"/>
<path d="M41.9116 70.3933C41.9192 70.4977 41.9052 70.6024 41.8704 70.7012C41.8356 70.7999 41.7807 70.8904 41.7092 70.9671C41.6377 71.0438 41.5511 71.1051 41.4547 71.1471C41.3584 71.1891 41.2544 71.2109 41.1492 71.2112H6.29427C5.89596 71.2112 5.56617 70.9045 5.5319 70.5041L4.79095 60.6214L3.8958 48.6812C3.88754 48.577 3.901 48.4724 3.93532 48.3737C3.96965 48.275 4.02411 48.1844 4.09528 48.1076C4.16646 48.0308 4.25281 47.9695 4.34894 47.9274C4.44506 47.8854 4.54888 47.8635 4.65389 47.8633H39.5131C39.9114 47.8633 40.2412 48.17 40.2755 48.5661L41.7574 68.3742L41.9116 70.3976V70.3933Z" fill="#C4DCEB"/>
<path d="M55.6431 20.7895C57.4038 20.4984 61.5533 20.8929 63.5785 22.6892C65.6037 24.4855 65.087 26.9597 65.0127 27.6414L64.8515 29.1849L65.8682 28.8671C65.8682 28.8671 66.7774 27.2163 68.2199 26.5001C69.6582 25.7877 69.4474 20.9542 69.1787 21.1572C68.9101 21.3602 65.0085 18.6983 65.0085 18.6983L62.1774 17.511L57.2219 18.863L55.6431 20.7895Z" fill="#6B3626"/>
<path d="M56.1947 26.2993C56.341 26.2993 56.4813 26.2668 56.5847 26.209C56.6882 26.1512 56.7463 26.0728 56.7463 25.991C56.7463 25.9093 56.6882 25.8308 56.5847 25.773C56.4813 25.7152 56.341 25.6827 56.1947 25.6827C56.0484 25.6827 55.9081 25.7152 55.8047 25.773C55.7012 25.8308 55.6431 25.9093 55.6431 25.991C55.6431 26.0728 55.7012 26.1512 55.8047 26.209C55.9081 26.2668 56.0484 26.2993 56.1947 26.2993ZM60.3721 26.8501C60.4446 26.8501 60.5163 26.8422 60.5832 26.8267C60.6501 26.8112 60.7109 26.7885 60.7622 26.7598C60.8134 26.7312 60.854 26.6972 60.8817 26.6598C60.9094 26.6224 60.9237 26.5823 60.9237 26.5419C60.9237 26.5014 60.9094 26.4613 60.8817 26.4239C60.854 26.3865 60.8134 26.3525 60.7622 26.3239C60.7109 26.2953 60.6501 26.2725 60.5832 26.2571C60.5163 26.2416 60.4446 26.2336 60.3721 26.2336C60.2259 26.2336 60.0856 26.2661 59.9821 26.3239C59.8787 26.3817 59.8206 26.4601 59.8206 26.5419C59.8206 26.6236 59.8787 26.702 59.9821 26.7598C60.0856 26.8177 60.2259 26.8501 60.3721 26.8501Z" fill="#591D0B"/>
<path d="M56.6992 25.6827C56.6118 26.8384 56.144 27.4221 55.7589 27.8256C55.3761 28.2252 56.0188 29.0674 56.5764 29.1849" stroke="#BA6958" stroke-width="0.68" stroke-miterlimit="10" stroke-linecap="round" stroke-linejoin="round"/>
<path d="M55.7202 30.8686C56.1781 31.043 56.641 31.1161 57.0888 31.1274C58.2713 31.1442 59.328 30.6999 59.7809 30.3625C59.8211 30.3344 59.8765 30.3681 59.8664 30.4187C59.7818 30.9893 59.5358 31.5146 59.1645 31.9174C58.7932 32.3203 58.3161 32.5795 57.8033 32.6571C56.1579 32.9214 55.7353 31.3636 55.6447 30.9418C55.6346 30.8968 55.6749 30.8574 55.7202 30.8686Z" fill="#A84B35"/>
<path d="M41.9116 70.3997C41.9192 70.5032 41.9052 70.6072 41.8706 70.7051C41.8359 70.803 41.7813 70.8929 41.7101 70.969C41.6389 71.0451 41.5526 71.1059 41.4567 71.1475C41.3608 71.1892 41.2572 71.2108 41.1525 71.2112H6.4422C6.04559 71.2112 5.71721 70.9069 5.68735 70.5096L4.94956 60.7046L41.7581 68.388L41.9116 70.3997Z" fill="#9EC1D8"/>
<path d="M61.6899 25.6823C61.6347 25.6798 61.5818 25.665 61.538 25.6398C61.4941 25.6146 61.4614 25.5802 61.4439 25.541C61.4308 25.5081 60.9433 24.8182 59.3228 24.5258C59.1778 24.4996 59.0593 24.4207 59.0724 24.3057C59.0812 24.194 59.213 24.1218 59.3667 24.1185C61.5713 24.0298 61.949 25.3669 61.9665 25.4162C61.9803 25.4478 61.9834 25.4815 61.9757 25.5142C61.968 25.547 61.9498 25.5778 61.9225 25.6041C61.8952 25.6303 61.8597 25.6512 61.8192 25.6648C61.7786 25.6784 61.7342 25.6844 61.6899 25.6823ZM53.7761 24.4273C53.7258 24.4246 53.6774 24.4121 53.6356 24.3912C53.5126 24.3254 53.5082 24.2072 53.5697 24.1053C53.8551 23.6093 54.7335 23.0376 56.4199 23.5468C56.5604 23.5928 56.6263 23.7111 56.5692 23.8195C56.5121 23.9214 56.354 23.9608 56.2091 23.9279C55.8269 23.8514 55.4249 23.8492 55.0414 23.9216C54.6578 23.9941 54.3054 24.1388 54.0176 24.3419C53.9903 24.3702 53.9538 24.3929 53.9116 24.4078C53.8693 24.4228 53.8227 24.4295 53.7761 24.4273Z" fill="#6B3626"/>
<path d="M68.3165 17.489C65.2202 12.9701 61.7024 13.9933 58.3695 14.4068C56.5418 14.6285 59.3758 18.6784 59.3758 18.6784L68.3165 17.4847V17.489Z" fill="#6B3626"/>
<path d="M26.0719 77.0442H18.6791L20.4335 65.5531C20.5489 64.8103 20.9243 64.1404 21.4853 63.6766C22.0462 63.2127 22.7516 62.9887 23.4616 63.0491C24.1715 63.1095 24.834 63.4498 25.3175 64.0024C25.8011 64.5551 26.0703 65.2798 26.0719 66.0326V77.0482V77.0442Z" fill="#C4DCEB"/>
<path d="M41.7649 67.709L41.9117 70.203C41.919 70.3317 41.9056 70.4608 41.8725 70.5825C41.8393 70.7041 41.7871 70.8157 41.719 70.9103C41.6509 71.0049 41.5685 71.0804 41.4768 71.1321C41.3851 71.1839 41.2861 71.2108 41.186 71.2112H27.128" stroke="#2891D2" stroke-width="0.68" stroke-miterlimit="10" stroke-linecap="round"/>
<path d="M85.1785 39.6643C84.2534 40.213 82.4938 32.3509 80.243 27.0433C80.1191 26.7501 79.6994 25.9411 80.1095 25.7188C80.3861 25.5769 80.6102 25.8702 80.8725 26.3101C81.9693 28.1266 82.1886 28.7842 83.3521 31.6035C82.8896 29.9053 82.6988 28.9639 82.1218 27.5826C82.0026 27.2988 81.5401 26.3527 82.1218 26.2486C82.4747 26.1871 82.9993 27.0575 83.2854 27.7245C85.2691 32.5969 86.2133 39.0446 86.2705 39.3757L85.1737 39.6595L85.1785 39.6643Z" fill="#E4A79A"/>
<path d="M85.8546 39.6894C85.732 39.7012 85.61 39.6612 85.5146 39.5779C85.4193 39.4946 85.3581 39.3746 85.3442 39.2435C85.3325 39.1594 84.6337 32.0423 83.6993 28.2777C83.5462 27.6593 83.3224 26.9611 83.5658 26.8644C83.8053 26.7718 84.0801 27.1504 84.1861 27.407C86.1765 32.2779 86.2315 38.7851 86.2668 39.1258C86.2824 39.2585 86.2481 39.3924 86.1716 39.4981C86.095 39.6038 85.9824 39.6726 85.8585 39.6894H85.8546ZM81.9327 38.7682C80.539 38.8818 79.4908 37.1951 79.3259 36.745C79.2317 36.4842 79.0393 35.8911 79.2552 35.7355C79.4672 35.5798 79.8245 35.9079 79.9658 36.1393C79.9737 36.1519 80.6607 37.2455 81.5008 37.174C82.2271 37.1152 82.4823 36.8502 82.7492 36.3202C83.0947 35.6387 83.0555 34.6629 82.7492 33.9226C82.6135 33.591 82.3895 33.3096 82.1053 33.1136C81.8211 32.9176 81.4894 32.8156 81.1514 32.8205C80.9551 32.8247 80.7471 32.8668 80.5704 32.9845C80.2053 33.2159 79.8755 33.8553 79.7263 34.5829C79.6674 34.8522 79.479 35.3106 79.2238 35.3275C78.9686 35.3485 78.9019 34.8227 78.8823 34.5451C78.8524 33.9894 78.9691 33.4359 79.219 32.9479C79.469 32.46 79.842 32.0572 80.2956 31.7857C81.1043 31.3062 82.2742 31.2137 82.9416 31.7689C82.9809 31.8026 82.5961 32.2064 82.6354 32.24C83.9545 33.4052 84.3392 35.2812 83.5658 36.8081C83.2361 37.4643 83.1183 38.6673 81.9327 38.764V38.7682Z" fill="#E4A79A"/>
<path d="M78.8777 38.1405C80.0834 39.1828 80.1662 39.287 80.9025 39.592C82.0529 40.0784 82.5269 40.4219 83.2034 42.989C83.4197 43.7919 87.3266 41.9738 87.3266 41.9738C87.3266 41.9738 86.5121 35.5001 85.6193 32.9447C85.0947 31.4585 83.5393 36.8898 83.5393 36.8898L81.6664 38.5188L78.8823 38.1405H78.8777Z" fill="#E4A79A"/>
<path d="M92.629 72.2222C90.1996 72.8724 86.7097 71.4744 86.078 68.406L82.046 43.8795L88.9401 42.0262L95.5223 65.5531C96.3607 68.5442 95.0466 71.576 92.6251 72.2262L92.629 72.2222Z" fill="#354A63"/>
<path d="M80.0267 47.8633C83.5003 50.9861 94.7194 68.4538 94.7194 68.4538C94.7194 68.4538 93.7512 72.4027 91.1779 72.3785C86.5577 72.3301 76.7654 63.0181 76.7654 63.0181L80.0267 47.8633Z" fill="#354A63"/>
<path d="M26 49.5898L30.1233 54.1981L37.9692 44.7827L35.2832 44.3298L29.9114 52.5773L27.5222 48.8905L26 49.5898Z" fill="#FF7C22" stroke="#FF7C22" stroke-width="1.1" stroke-miterlimit="10" stroke-linecap="round" stroke-linejoin="round"/>
</svg>
