<svg width="50" height="50" viewBox="0 0 50 50" fill="none" xmlns="http://www.w3.org/2000/svg">
<path d="M47.9884 42.6972H42.5162C40.4458 42.6972 39.822 40.7382 36.1107 36.3998C32.8672 32.748 31.4973 32.2939 30.6768 32.2939C29.5421 32.2939 29.2326 32.6583 29.2326 34.4828V40.2337C29.2326 41.7892 28.8007 42.7 25.3221 42.7C21.9473 42.4351 18.6747 41.2375 15.7738 39.2056C12.8728 37.1737 10.4266 34.3658 8.63662 31.0132C4.38641 24.8335 1.42914 17.5805 0 9.8311C0 8.87261 0.311878 8.0038 1.87607 8.0038H7.34593C8.75178 8.0038 9.25798 8.73528 9.80977 10.4253C12.4655 19.5561 16.9974 27.4987 18.8374 27.4987C19.5428 27.4987 19.8498 27.1344 19.8498 25.08V15.6745C19.6171 11.3837 17.6667 11.0222 17.6667 9.46956C17.6914 9.05994 17.8518 8.67768 18.1138 8.40399C18.3759 8.13031 18.7189 7.98674 19.0701 8.0038H27.6684C28.8439 8.0038 29.2326 8.68764 29.2326 10.33V23.0257C29.2326 24.3962 29.7364 24.8502 30.0914 24.8502C30.7968 24.8502 31.339 24.3962 32.632 22.8884C35.4038 18.9395 37.6683 14.5399 39.3542 9.8283C39.5268 9.2626 39.853 8.77837 40.2831 8.44946C40.7132 8.12056 41.2236 7.96503 41.7365 8.0066H47.2087C48.8497 8.0066 49.1976 8.9651 48.8497 10.3328C46.8594 15.5412 44.3967 20.4852 41.5038 25.08C40.9136 26.131 40.6785 26.6775 41.5038 27.9107C42.046 28.8692 43.9652 30.7413 45.2535 32.521C47.1296 34.707 48.6866 37.2349 49.8645 40.0039C50.3347 41.7864 49.5502 42.6972 47.9884 42.6972Z" fill="#78ADCE"/>
</svg>
