<svg width="50" height="50" viewBox="0 0 50 50" fill="none" xmlns="http://www.w3.org/2000/svg">
<path d="M25 0C38.8075 0 50 11.1925 50 25C50 38.8075 38.8075 50 25 50C20.582 50.0071 16.2417 48.8379 12.425 46.6125L0.0100352 50L3.39003 37.58C1.16277 33.7622 -0.00734594 29.42 3.47006e-05 25C3.47006e-05 11.1925 11.1925 0 25 0ZM16.48 13.25L15.98 13.27C15.6563 13.2897 15.34 13.3747 15.05 13.52C14.7788 13.6736 14.5313 13.8656 14.315 14.09C14.015 14.3725 13.845 14.6175 13.6625 14.855C12.7378 16.0572 12.24 17.5333 12.2475 19.05C12.2525 20.275 12.5725 21.4675 13.0725 22.5825C14.095 24.8375 15.7775 27.225 17.9975 29.4375C18.5325 29.97 19.0575 30.505 19.6225 31.0025C22.381 33.4311 25.6682 35.1826 29.2225 36.1175L30.6425 36.335C31.105 36.36 31.5675 36.325 32.0325 36.3025C32.7606 36.2649 33.4715 36.0677 34.115 35.725C34.4424 35.5563 34.7619 35.3728 35.0725 35.175C35.0725 35.175 35.18 35.105 35.385 34.95C35.7225 34.7 35.93 34.5225 36.21 34.23C36.4175 34.015 36.5975 33.7625 36.735 33.475C36.93 33.0675 37.125 32.29 37.205 31.6425C37.265 31.1475 37.2475 30.8775 37.24 30.71C37.23 30.4425 37.0075 30.165 36.765 30.0475L35.31 29.395C35.31 29.395 33.135 28.4475 31.805 27.8425C31.6658 27.7817 31.5167 27.747 31.365 27.74C31.194 27.7224 31.0211 27.7417 30.8581 27.7964C30.6951 27.8512 30.5458 27.9402 30.42 28.0575C30.4075 28.0525 30.24 28.195 28.4325 30.385C28.3288 30.5244 28.1859 30.6297 28.022 30.6876C27.8582 30.7455 27.6808 30.7533 27.5125 30.71C27.3497 30.6663 27.1901 30.6112 27.035 30.545C26.725 30.415 26.6175 30.365 26.405 30.275C24.9702 29.6488 23.6417 28.8029 22.4675 27.7675C22.1525 27.4925 21.86 27.1925 21.56 26.9025C20.5765 25.9606 19.7193 24.895 19.01 23.7325L18.8625 23.495C18.7566 23.3354 18.6709 23.1632 18.6075 22.9825C18.5125 22.615 18.76 22.32 18.76 22.32C18.76 22.32 19.3675 21.655 19.65 21.295C19.925 20.945 20.1575 20.605 20.3075 20.3625C20.6025 19.8875 20.695 19.4 20.54 19.0225C19.84 17.3125 19.115 15.61 18.37 13.92C18.2225 13.585 17.785 13.345 17.3875 13.2975C17.2525 13.2825 17.1175 13.2675 16.9825 13.2575C16.6468 13.2408 16.3104 13.2442 15.975 13.2675L16.4775 13.2475L16.48 13.25Z" fill="#78ADCE"/>
</svg>
